<?xml version="1.0" encoding="utf-8"?>
<!-- Generator: Adobe Illustrator 22.1.0, SVG Export Plug-In . SVG Version: 6.00 Build 0)  -->
<svg version="1.1" id="Layer_1" xmlns="http://www.w3.org/2000/svg" xmlns:xlink="http://www.w3.org/1999/xlink" x="0px" y="0px"
	 viewBox="0 0 750 407" style="enable-background:new 0 0 750 407;" xml:space="preserve">
<style type="text/css">
	.st0{fill:#EBEBEB;}
	.st1{fill:#36B37E;}
	.st2{opacity:0.2;}
	.st3{opacity:0.3;}
	.st4{fill:#FFFFFF;}
	.st5{fill:#FAFAFA;}
	.st6{fill:#263238;}
	.st7{fill:#455A64;}
	.st8{opacity:0.4;}
	.st9{fill:#E0E0E0;}
	.st10{opacity:0.8;}
	.st11{fill:#FFBE9D;}
	.st12{opacity:0.6;}
	.st13{fill:#EB996E;}
</style>
<g id="freepik--background-simple--inject-14">
	<path class="st0" d="M303,104c-11.4-19.6-38-28.8-59-20.2c-9.5,3.9-17.9,10.9-28.1,12.3c-16.3,2.4-30.8-9.9-41.8-22.1
		s-22.5-26.2-38.7-28.9c-21-3.6-40.3,13.8-49.1,33.2c-14.8,32.5-8.4,73.4,15.5,99.9c23,25.4,56.2,42,95.9,40.5l0,0
		c21.1-1.9,31.6-4.2,51.8-10.7s37.5-26.1,49.2-43.7S313.6,122.3,303,104z"/>
	<path class="st0" d="M469.1,71.7c-12.4-13.6-29.4-22-47.7-23.7c-15.8-1.3-37-1.4-51.6,6.1l0,0h-0.1c-14.2,6.8-27,17.8-32.2,30.6
		s-2.9,28.6,6,39.3s24.1,15.8,37.6,12.3s24.9-14.7,38.8-14.5c13.5,0.2,25.3,11.3,38.7,10.5c12.8-0.8,22.9-13.1,24-25.8
		S477.6,81.2,469.1,71.7z"/>
	<path class="st0" d="M643.8,94c-10.2-14.4-32.3-18.6-47-8.8l-2.7,2c-13.6,11.2-16.2,33.6-5.3,47.5s33.2,17,47.4,6.5
		S654,108.4,643.8,94z"/>
</g>
<g id="freepik--Sheet--inject-14">
	<path class="st1" d="M373.7,214.6l-32.3,17c-2.2,1.2-5,0.3-6.2-1.9L311.7,185c-1.2-2.2-0.3-5,1.9-6.2c0,0,0,0,0,0l20.5-10.8l24.4,8
		l17,32.4C376.7,210.7,375.9,213.4,373.7,214.6z"/>
	<path class="st1" d="M334.1,168.1l6.6,12.6c1.1,2.1,3.7,2.9,5.7,1.8c0,0,0,0,0,0l12.1-6.4L334.1,168.1z"/>
	<g class="st2">
		<path d="M341.5,181.7c1,2,3.3,2.9,5.4,2.3l0.5-0.1c1.7-0.6,13.1-4.2,13-4.4s-1.8-3.4-1.8-3.4l-12.1,6.4
			C346.5,182.4,343.4,183.9,341.5,181.7z"/>
	</g>
	<g class="st3">
		<path class="st4" d="M334.1,168.1l6.6,12.6c1.1,2.1,3.7,2.9,5.7,1.8c0,0,0,0,0,0l12.1-6.4L334.1,168.1z"/>
	</g>
	<path class="st5" d="M337.7,181.6c0.1,0.2-3.2,2.1-7.3,4.2s-7.5,3.8-7.6,3.6s3.2-2,7.3-4.2S337.7,181.4,337.7,181.6z"/>
	<path class="st5" d="M351.1,183.6c0.1,0.2-5.4,3.2-12.1,6.8s-12.4,6.3-12.4,6.2s5.3-3.2,12.1-6.8S351,183.4,351.1,183.6z"/>
	<path class="st5" d="M356.5,188.4c0.1,0.2-5.9,3.4-13.2,7.3s-13.5,6.9-13.5,6.8s5.8-3.4,13.2-7.3S356.4,188.2,356.5,188.4z"/>
	<path class="st5" d="M359.4,194c0.1,0.2-5.8,3.4-13.2,7.3s-13.5,6.9-13.5,6.8s5.9-3.4,13.2-7.3S359.3,193.8,359.4,194z"/>
	<path class="st5" d="M362.4,199.6c0.1,0.2-5.9,3.4-13.2,7.3s-13.5,6.9-13.5,6.8s5.8-3.4,13.2-7.3S362.2,199.4,362.4,199.6z"/>
	<path class="st5" d="M365.3,205.2c0.1,0.2-5.8,3.4-13.2,7.3s-13.5,6.9-13.5,6.8s5.9-3.4,13.3-7.3S365.2,205,365.3,205.2z"/>
</g>
<g id="freepik--Stopwatch--inject-14">
	
		<rect x="251.1" y="249.6" transform="matrix(0.4484 -0.8938 0.8938 0.4484 -85.9546 364.955)" class="st6" width="3.3" height="5.1"/>
	<path class="st7" d="M253.3,248.6l-3,6l-4.9-2.5c0.5-2.2,1.5-4.3,3-6L253.3,248.6z"/>
	<path class="st6" d="M250.8,253.6c-0.9-0.2-1.8-0.6-2.6-1.1c-0.9-0.4-1.7-0.9-2.5-1.5c0.9,0.3,1.8,0.6,2.7,1.1
		C249.2,252.6,250,253,250.8,253.6z"/>
	<path class="st6" d="M251.4,252.5c-0.9-0.3-1.8-0.7-2.7-1.2c-0.9-0.4-1.7-0.9-2.5-1.5c1,0.2,1.9,0.6,2.7,1.2
		C249.8,251.3,250.6,251.8,251.4,252.5z"/>
	<path class="st6" d="M252.1,251c-0.9-0.3-1.9-0.7-2.7-1.2c-0.9-0.4-1.7-0.9-2.5-1.5c1,0.3,1.9,0.7,2.7,1.2
		C250.5,249.8,251.4,250.3,252.1,251z"/>
	<path class="st6" d="M252.8,249.5c-0.9-0.2-1.8-0.6-2.6-1.1c-0.9-0.4-1.7-0.9-2.5-1.5c0.9,0.2,1.8,0.6,2.6,1.1
		C251.2,248.4,252.1,248.9,252.8,249.5z"/>
	
		<rect x="287.7" y="235.3" transform="matrix(0.4008 -0.9162 0.9162 0.4008 -43.1747 407.9534)" class="st6" width="5.1" height="3.3"/>
	<path class="st7" d="M293.8,237.4l-6.2-2.7l2.2-5c2.3,0.3,4.4,1.3,6.2,2.7L293.8,237.4z"/>
	<path class="st6" d="M288.7,235.2c0.2-0.9,0.5-1.9,1-2.7c0.3-0.9,0.8-1.8,1.3-2.6c-0.2,0.9-0.5,1.9-1,2.7
		C289.7,233.5,289.2,234.4,288.7,235.2z"/>
	<path class="st6" d="M289.8,235.7c0.2-1,0.6-1.9,1.1-2.7c0.4-0.9,0.8-1.8,1.4-2.6c-0.2,1-0.5,1.9-1,2.8
		C290.9,234,290.4,234.9,289.8,235.7z"/>
	<path class="st6" d="M291.4,236.4c0.2-1,0.6-1.9,1.1-2.8c0.4-0.9,0.8-1.8,1.4-2.6c-0.2,1-0.6,1.9-1.1,2.8
		C292.5,234.7,292,235.6,291.4,236.4z"/>
	<path class="st6" d="M292.9,237c0.5-1.9,1.3-3.6,2.3-5.3c-0.2,0.9-0.5,1.9-1,2.7C293.9,235.4,293.4,236.2,292.9,237z"/>
	
		<rect x="266.7" y="233.4" transform="matrix(0.9227 -0.3854 0.3854 0.9227 -70.3763 121.7999)" class="st6" width="3.9" height="6"/>
	<path class="st1" d="M271.8,233.8l-7.4,3.1l-2.5-6c2.1-1.7,4.7-2.7,7.4-3.1L271.8,233.8z"/>
	<path class="st6" d="M269.4,227.8c-1.8,2.2-4.6,3.4-7.5,3.1c1.4-0.2,2.7-0.5,4-1C267.2,229.3,268.3,228.6,269.4,227.8z"/>
	<path class="st6" d="M266.9,235.8c-0.5-0.8-1-1.6-1.3-2.5c-0.4-0.8-0.7-1.7-0.9-2.6c0.5,0.8,1,1.6,1.3,2.5
		C266.4,234,266.7,234.9,266.9,235.8z"/>
	<path class="st6" d="M268.3,235.3c-0.5-0.8-1-1.6-1.3-2.5c-0.4-0.8-0.7-1.7-0.9-2.7c0.5,0.8,1,1.6,1.3,2.5
		C267.8,233.5,268.1,234.4,268.3,235.3z"/>
	<path class="st6" d="M269.7,234.7c-0.5-0.8-1-1.6-1.3-2.5c-0.4-0.8-0.7-1.7-0.9-2.7c0.5,0.8,1,1.6,1.3,2.5
		C269.2,232.9,269.5,233.8,269.7,234.7z"/>
	<path class="st6" d="M270.9,234.2c-0.6-0.8-1-1.8-1.4-2.7c-0.5-0.9-0.8-1.9-1-2.9c0.6,0.8,1,1.8,1.3,2.7
		C270.3,232.2,270.7,233.2,270.9,234.2z"/>
	<path class="st6" d="M265.6,236.4c-0.6-0.8-1-1.8-1.4-2.7c-0.5-0.9-0.8-1.9-1-2.9C264.2,232.5,265,234.4,265.6,236.4L265.6,236.4z"
		/>
	<circle class="st1" cx="279.5" cy="263.7" r="28.1"/>
	<circle class="st5" cx="279.4" cy="263.5" r="23.6"/>
	<path class="st6" d="M301.2,254.4c-0.1-0.1-0.1-0.2-0.2-0.3l-0.5-1l-0.4-0.7c-0.1-0.3-0.3-0.5-0.5-0.9c-0.4-0.7-0.9-1.4-1.4-2
		c-1.4-1.8-3-3.4-4.8-4.8c-2.4-1.8-5.2-3.1-8.1-3.8c-4.5-1.2-9.3-1-13.7,0.6c-0.5,0.2-1,0.3-1.4,0.5l-1.4,0.7
		c-0.2,0.1-0.5,0.2-0.7,0.4l-0.7,0.4c-0.5,0.3-0.9,0.5-1.4,0.9c-0.9,0.6-1.7,1.3-2.5,2c-0.8,0.8-1.6,1.6-2.3,2.4
		c-0.4,0.4-0.7,0.9-1,1.4c-0.3,0.5-0.7,0.9-0.9,1.4c-0.6,1-1.1,2-1.6,3.1c-0.4,1.1-0.8,2.2-1.1,3.4c-0.6,2.4-0.8,4.8-0.6,7.3
		c0.2,2.5,0.8,5,1.7,7.3c1,2.3,2.4,4.5,4,6.4c1.6,1.8,3.5,3.4,5.6,4.7c1,0.6,2.1,1.2,3.2,1.6c1.1,0.4,2.2,0.8,3.3,1.1
		c0.6,0.2,1.1,0.3,1.7,0.4c0.6,0.1,1.1,0.2,1.7,0.2c1.1,0.1,2.2,0.1,3.3,0.1c1.1,0,2.2-0.2,3.2-0.4c0.5-0.1,1-0.3,1.6-0.4l0.8-0.2
		c0.3-0.1,0.5-0.2,0.8-0.3l1.5-0.5c0.5-0.2,0.9-0.4,1.4-0.6c0.9-0.4,1.8-0.9,2.6-1.5c5.6-3.7,9.4-9.6,10.4-16.3
		c0.3-2.3,0.3-4.5,0-6.8c-0.1-0.8-0.3-1.6-0.5-2.4c-0.1-0.4-0.2-0.7-0.2-1l-0.3-0.8l-0.4-1.1C301.2,254.5,301.2,254.3,301.2,254.4
		c0,0,0.1,0.1,0.2,0.3l0.4,1.1c0.1,0.2,0.2,0.5,0.3,0.8s0.2,0.6,0.3,1c0.2,0.8,0.4,1.6,0.5,2.5c0.4,2.3,0.4,4.6,0.1,6.8
		c-0.9,6.8-4.7,12.8-10.4,16.5c-0.8,0.6-1.7,1-2.6,1.5c-0.5,0.2-0.9,0.5-1.4,0.6l-1.5,0.5c-0.3,0.1-0.5,0.2-0.8,0.3l-0.8,0.2
		c-0.5,0.1-1,0.3-1.6,0.4c-1.1,0.2-2.2,0.3-3.3,0.4c-1.1,0.1-2.3,0-3.4-0.1c-0.6-0.1-1.1-0.2-1.7-0.2c-0.6-0.1-1.1-0.2-1.7-0.4
		c-2.3-0.5-4.6-1.5-6.6-2.7c-2.1-1.3-4-2.9-5.7-4.7c-3.4-3.9-5.4-8.7-5.8-13.9c-0.2-2.5,0-5,0.6-7.4c0.5-2.3,1.5-4.6,2.7-6.6
		c0.3-0.5,0.6-1,0.9-1.5c0.4-0.5,0.7-1,1-1.4c1.4-1.7,3.1-3.2,4.9-4.5c0.5-0.3,0.9-0.6,1.4-0.9l0.7-0.4c0.2-0.1,0.5-0.2,0.7-0.4
		l1.4-0.7c0.5-0.2,1-0.4,1.5-0.5c1-0.3,1.9-0.6,2.9-0.8c6.7-1.4,13.6,0.1,19.1,4.2c1.8,1.4,3.5,3,4.8,4.9c0.5,0.7,1,1.4,1.4,2.1
		c0.2,0.3,0.4,0.6,0.5,0.9l0.4,0.8c0.2,0.4,0.4,0.8,0.5,1S301.2,254.4,301.2,254.4z"/>
	<path class="st6" d="M297.9,255.3c-1.2,0.6-2.4,1-3.7,1.3c1-0.8,2.2-1.5,3.4-2c1.9-1,3.6-1.5,3.7-1.3S299.8,254.5,297.9,255.3z"/>
	<path class="st6" d="M298.2,270.7c-1.3-0.4-2.4-0.9-3.5-1.7c1.3,0.1,2.6,0.5,3.8,1c2,0.7,3.6,1.4,3.5,1.7S300.2,271.5,298.2,270.7z
		"/>
	<path class="st6" d="M287.7,281.9c-0.6-1.2-1.1-2.4-1.3-3.7c0.8,1,1.5,2.1,2,3.4c1,1.9,1.6,3.6,1.3,3.7S288.6,283.8,287.7,281.9z"
		/>
	<path class="st6" d="M272.4,282.4c0.4-1.3,0.9-2.5,1.6-3.6c-0.1,1.3-0.4,2.6-0.9,3.8c-0.7,2-1.4,3.6-1.6,3.6
		S271.6,284.4,272.4,282.4z"/>
	<path class="st6" d="M261.1,272c1.1-0.6,2.4-1.1,3.7-1.4c-1,0.8-2.1,1.5-3.4,2c-1.9,1-3.6,1.6-3.7,1.4S259.1,272.9,261.1,272z"/>
	<path class="st6" d="M260.4,256.7c1.3,0.4,2.5,0.9,3.6,1.6c-1.3-0.1-2.6-0.4-3.8-0.9c-2.1-0.6-3.7-1.4-3.6-1.6
		S258.3,255.9,260.4,256.7z"/>
	<path class="st6" d="M270.7,245.3c0.6,1.1,1.1,2.4,1.4,3.6c-0.9-1-1.6-2.1-2.1-3.3c-1-1.9-1.6-3.5-1.4-3.6S269.7,243.3,270.7,245.3
		z"/>
	<path class="st6" d="M286,244.4c-0.3,1.3-0.9,2.5-1.6,3.6c0.1-1.3,0.4-2.6,0.9-3.8c0.6-2.1,1.3-3.7,1.6-3.6S286.7,242.4,286,244.4z
		"/>
	<path class="st6" d="M297.5,254.5c-1.1,0.7-2.4,1.2-3.6,1.5c1-0.9,2.1-1.6,3.3-2.1c1.9-1,3.5-1.7,3.6-1.5S299.4,253.6,297.5,254.5z
		"/>
	<path class="st4" d="M261.1,243.4c-0.3,0.4-0.6,0.7-0.9,1c-0.8,0.9-1.6,1.8-2.4,2.8c-4.9,6.5-6.6,14.8-4.7,22.8
		c0.3,1.2,0.6,2.4,1,3.5c0.2,0.4,0.3,0.8,0.5,1.3c-0.1-0.1-0.1-0.2-0.2-0.3c-0.1-0.2-0.3-0.5-0.4-0.9c-0.5-1.1-0.9-2.3-1.2-3.5
		c-2.1-8-0.3-16.5,4.8-23c0.8-1,1.6-1.9,2.5-2.7c0.3-0.3,0.6-0.5,0.7-0.7S261,243.4,261.1,243.4z"/>
	<path class="st4" d="M267.7,239c-0.7,0.6-1.5,1.1-2.4,1.5c-0.8,0.5-1.6,1-2.5,1.3c0.7-0.7,1.4-1.2,2.3-1.6
		C265.9,239.6,266.8,239.3,267.7,239z"/>
	<g class="st8">
		<path d="M267.4,283.9c0,0,18.8,13.1,32.5-3.3c14.3-17.2-4.9-34.8-4.9-34.8s15.9,13.8,2.8,32.6c-3.3,4.7-8.1,6.7-11.9,7.9
			C276,289.2,267.4,283.9,267.4,283.9z"/>
	</g>
	<path class="st9" d="M280.6,249.3c1.4,3.2,2.7,6.4,3.7,9.7c0.4,1.2,0.7,2.4,0.7,3.7c0.1,1.3-0.4,2.5-1.2,3.5
		c-0.9,1-2.3,1.2-3.4,0.7L280.6,249.3z"/>
	<polygon class="st1" points="278.2,261.9 280.5,245.3 282,262.4 279.9,264.1 	"/>
	<g class="st8">
		<polygon points="280.5,245.3 280.4,261.4 282,262.4 		"/>
	</g>
	<path class="st5" d="M282.5,263c0.6,1.4-0.1,3-1.5,3.6c-1.4,0.6-3-0.1-3.6-1.5c-0.6-1.4,0.1-3,1.5-3.6c0,0,0,0,0,0
		C280.3,261,281.9,261.6,282.5,263z"/>
	<path class="st6" d="M282.5,263c0,0-0.1-0.2-0.4-0.5c-0.4-0.5-0.9-0.8-1.5-0.9c-1.4-0.3-2.8,0.5-3.2,1.9c-0.3,1.4,0.5,2.8,1.9,3.2
		c0.2,0.1,0.5,0.1,0.7,0.1c0.9,0,1.7-0.5,2.1-1.3c0.3-0.5,0.5-1.1,0.4-1.7C282.5,263.3,282.4,263,282.5,263c0.1,0.2,0.2,0.4,0.3,0.6
		c0.1,0.6,0,1.3-0.3,1.9c-0.5,0.9-1.4,1.4-2.4,1.5c-1.6,0.1-3-1.2-3.1-2.8c0-0.9,0.3-1.7,1-2.3c0.7-0.7,1.8-0.9,2.7-0.6
		c0.6,0.2,1.2,0.6,1.5,1.1C282.3,262.6,282.4,262.8,282.5,263z"/>
	<path class="st7" d="M281.8,263.3c0.4,1,0,2.3-1.1,2.7c-1,0.4-2.3,0-2.7-1.1c-0.4-1,0-2.3,1.1-2.7c0,0,0,0,0,0
		C280.2,261.8,281.4,262.3,281.8,263.3z"/>
</g>
<g id="freepik--Video--inject-14">
	<path class="st1" d="M242.7,333.2c0.5-0.2,0.9-0.4,1.2-0.8c0.4-0.5,0.6-1.1,0.6-1.7c0-0.4-0.1-0.8-0.2-1.1
		c-0.1-0.4-0.2-0.9-0.3-1.3c-0.9-3.7-2.3-9.1-3.9-15.7c-0.4-1.7-0.8-3.4-1.3-5.2c-0.2-0.9-0.4-1.8-0.7-2.8c-0.1-0.5-0.2-0.9-0.4-1.4
		c-0.2-0.4-0.5-0.8-0.9-1c-0.4-0.2-0.9-0.4-1.3-0.3c-0.5,0.1-1,0.2-1.5,0.3l-3.1,0.8l-6.4,1.6l-28.4,7.3c-1.2,0.3-1.9,1.5-1.7,2.7
		c0.3,1.3,0.6,2.5,0.9,3.7c0.6,2.5,1.2,4.9,1.8,7.3c1.2,4.8,2.3,9.4,3.3,13.8l0.4,1.6c0.1,0.5,0.3,1,0.7,1.3
		c0.4,0.3,0.8,0.6,1.3,0.6c0.5,0,1-0.1,1.5-0.2l6-1.5l10.8-2.8l15.7-4l4.3-1l1.1-0.3L242.7,333.2l-0.4,0.1l-1.1,0.3l-4.2,1.1
		l-15.6,4.1l-10.8,2.8l-6,1.6c-0.5,0.2-1.1,0.3-1.7,0.3c-0.6-0.1-1.2-0.3-1.6-0.8c-0.4-0.4-0.7-1-0.8-1.5c-0.1-0.5-0.3-1.1-0.4-1.6
		l-3.4-13.8l-1.8-7.3c-0.3-1.2-0.6-2.5-0.9-3.8c-0.3-1.5,0.6-2.9,2.1-3.3l28.4-7.3l6.4-1.6l3.1-0.8c0.5-0.2,1-0.3,1.6-0.3
		c0.6,0,1.1,0.1,1.6,0.4c0.5,0.3,0.9,0.7,1.1,1.2c0.2,0.5,0.3,1,0.4,1.5c0.2,0.9,0.4,1.9,0.7,2.8c0.4,1.8,0.8,3.5,1.3,5.2
		c1.6,6.6,2.8,12,3.7,15.7c0.1,0.5,0.2,0.9,0.3,1.3c0.1,0.4,0.2,0.8,0.2,1.2c0,0.6-0.3,1.3-0.7,1.7c-0.3,0.3-0.6,0.5-0.9,0.7
		C243,333.2,242.9,333.2,242.7,333.2z"/>
	<polygon class="st1" points="220.4,319.4 226.5,321.3 222,325.8 217.4,330.4 215.9,324 214.3,317.6 	"/>
</g>
<g id="freepik--Photos--inject-14">
	
		<rect x="131.5" y="276.9" transform="matrix(0.9684 -0.2496 0.2496 0.9684 -67.7151 46.1404)" class="st0" width="33.1" height="26.5"/>
	<path class="st6" d="M161,272.2h-0.2l-0.4,0.1l-1.7,0.5l-6.5,1.7l-23.1,6l0.1-0.1c2,7.6,4.3,16.3,6.7,25.5l0,0l-0.1-0.1l32-8.3
		l-0.1,0.1c-2-7.7-3.6-14.1-4.8-18.5c-0.6-2.2-1-4-1.3-5.2l-0.4-1.4C161,272.2,161,272.1,161,272.2l0.1,0.4c0.1,0.3,0.2,0.8,0.4,1.4
		l1.4,5.2c1.2,4.5,2.9,10.9,4.9,18.6v0.1h-0.1l-32,8.3h-0.1v-0.1l0,0l-6.6-25.6v-0.1h0.1l23.1-6l6.5-1.7l1.7-0.4l0.4-0.1L161,272.2z
		"/>
	
		<rect x="133" y="277.5" transform="matrix(0.9678 -0.2519 0.2519 0.9678 -68.04 46.6806)" class="st1" width="30.7" height="23.1"/>
	<polygon class="st1" points="136.3,304.1 143.1,287.5 151.8,294.6 155,288.8 166.1,296.4 	"/>
	<path class="st1" d="M151.8,283.5c0.3,1.3-0.5,2.6-1.7,2.9c-1.3,0.3-2.6-0.5-2.9-1.7c-0.3-1.3,0.4-2.6,1.7-2.9
		C150.1,281.4,151.5,282.1,151.8,283.5C151.8,283.4,151.8,283.5,151.8,283.5z"/>
	<g class="st2">
		<polygon points="136.3,304.1 143.1,287.5 151.8,294.6 155,288.8 166.1,296.4 		"/>
	</g>
	<g class="st2">
		<path d="M151.8,283.5c0.3,1.3-0.5,2.6-1.7,2.9c-1.3,0.3-2.6-0.5-2.9-1.7c-0.3-1.3,0.4-2.6,1.7-2.9
			C150.1,281.4,151.5,282.1,151.8,283.5C151.8,283.4,151.8,283.5,151.8,283.5z"/>
	</g>
	
		<rect x="146.2" y="251.8" transform="matrix(0.9975 -7.027879e-02 7.027879e-02 0.9975 -18.6727 12.7039)" class="st0" width="49.9" height="39.9"/>
	<path class="st6" d="M194.7,250h-0.2l-0.7,0l-2.7,0.2l-10.2,0.8l-36,2.6l0.1-0.1c0.8,11.9,1.8,25.4,2.8,39.8l0,0l-0.1-0.1l49.8-3.5
		l-0.1,0.1c-0.8-12-1.5-21.9-2-28.9c-0.2-3.5-0.4-6.2-0.5-8.1c-0.1-0.9-0.1-1.6-0.1-2.1S194.7,250,194.7,250l0,0.7
		c0,0.5,0.1,1.2,0.2,2.1c0.1,1.9,0.3,4.6,0.6,8c0.5,7,1.2,16.9,2.1,28.9v0.1h-0.1l-49.8,3.5h-0.1v-0.1l0,0c-1-14.4-2-28-2.8-39.8
		v-0.1h0.1l36-2.5l10.2-0.7l2.7-0.2h0.7L194.7,250z"/>
	
		<rect x="148" y="254.3" transform="matrix(0.9975 -7.027879e-02 7.027879e-02 0.9975 -18.6726 12.7007)" class="st1" width="46.4" height="34.9"/>
	<polygon class="st1" points="149.3,290.7 163.9,268 174.9,280.8 181.2,273.1 195.5,287.5 	"/>
	<path class="st1" d="M178,264.3c0.1,2-1.4,3.8-3.4,3.9c-2,0.1-3.8-1.4-3.9-3.4s1.4-3.8,3.4-3.9c0,0,0,0,0,0
		C176.1,260.8,177.8,262.3,178,264.3z"/>
	<g class="st2">
		<polygon points="149.3,290.7 163.9,268 174.9,280.8 181.2,273.1 195.5,287.5 		"/>
	</g>
	<g class="st2">
		<path d="M178,264.3c0.1,2-1.4,3.8-3.4,3.9c-2,0.1-3.8-1.4-3.9-3.4s1.4-3.8,3.4-3.9c0,0,0,0,0,0C176.1,260.8,177.8,262.3,178,264.3
			z"/>
	</g>
</g>
<g id="freepik--light-bulb--inject-14">
	<path class="st1" d="M99.5,311c-2.4-7.8-10.7-12.2-18.5-9.8c-7.8,2.4-12.2,10.7-9.8,18.5c1.7,5.5,6.4,9.6,12.1,10.3l1.1,3.6
		l12.4-3.9c0,0-0.5-2-1.1-3.8C99.7,322,101.2,316.3,99.5,311z"/>
	<path class="st6" d="M92.4,331.1v-0.2c0-0.1,0-0.3-0.1-0.5c-0.1-0.5-0.2-1.1-0.3-2s-0.3-2-0.4-3.3c-0.1-1.4-0.1-2.9,0.1-4.3
		c0.1-0.8,0.3-1.7,0.5-2.5c0.1-0.4,0.4-0.8,0.7-1.2c0.4-0.3,0.9-0.5,1.3-0.4c0.3,0.1,0.5,0.2,0.6,0.4c0.2,0.2,0.2,0.5,0.2,0.7
		c-0.1,0.5-0.4,1-0.8,1.3c-1.8,1.3-4.4,0.9-5.7-0.9c0,0,0-0.1-0.1-0.1c-0.3-0.5-0.6-1-0.6-1.6c0-0.6,0.4-1.2,1-1.4
		c0.3-0.1,0.6,0,0.9,0.3c0.2,0.2,0.4,0.5,0.4,0.8c0,0.6-0.2,1.2-0.6,1.7c-0.7,1.1-1.8,1.8-3,2c-1.2,0.2-2.5-0.3-3.4-1.2
		c-0.4-0.4-0.7-1.1-0.6-1.7c0-0.3,0.2-0.6,0.4-0.8c0.3-0.2,0.6-0.3,0.9-0.2c0.3,0.1,0.6,0.2,0.8,0.4c0.2,0.2,0.4,0.5,0.5,0.8
		c0.2,0.5,0.3,1.1,0.3,1.7c0,1.1-0.5,2.2-1.3,3c-0.7,0.8-1.7,1.2-2.8,1.3c-0.5,0.1-1,0-1.5-0.3c-0.5-0.3-0.7-0.8-0.5-1.3
		c0.1-0.2,0.3-0.4,0.5-0.5c0.2-0.1,0.5-0.1,0.7-0.1c0.5,0.1,0.9,0.3,1.2,0.7c0.6,0.7,1.1,1.3,1.6,1.9c2,2.5,3.6,4.6,4.6,6
		c0.5,0.7,0.9,1.3,1.2,1.7l0.3,0.5l0.1,0.1c0,0-0.1-0.1-0.1-0.1l-0.3-0.4c-0.3-0.4-0.7-1-1.2-1.7c-1.1-1.4-2.6-3.5-4.6-6
		c-0.5-0.6-1-1.3-1.6-1.9c-0.3-0.3-0.7-0.6-1.1-0.6c-0.4-0.1-0.9,0.1-1.1,0.5c-0.1,0.4,0.1,0.9,0.4,1.1c0.4,0.2,0.9,0.3,1.4,0.3
		c1-0.1,2-0.5,2.7-1.3c1.2-1.2,1.5-2.9,0.9-4.5c-0.2-0.5-0.6-0.9-1.1-1.1c-0.3-0.1-0.5,0-0.8,0.2c-0.2,0.2-0.3,0.4-0.4,0.7
		c0,0.6,0.2,1.1,0.6,1.5c0.8,0.9,2,1.3,3.2,1.1c1.2-0.2,2.2-0.9,2.9-1.9c0.3-0.5,0.5-1,0.5-1.6c0-0.3-0.1-0.5-0.3-0.7
		c-0.2-0.2-0.4-0.3-0.7-0.2c-0.3,0.1-0.5,0.2-0.6,0.5c-0.1,0.2-0.2,0.5-0.2,0.8c0,0.5,0.2,1.1,0.6,1.5c0.6,0.9,1.6,1.5,2.6,1.7
		c1,0.2,2-0.1,2.9-0.7c0.4-0.3,0.7-0.7,0.8-1.2c0.1-0.5-0.2-0.9-0.7-1c-0.4-0.1-0.9,0-1.2,0.3c-0.3,0.3-0.5,0.7-0.7,1.1
		c-0.2,0.8-0.4,1.6-0.5,2.5c-0.2,1.4-0.2,2.9-0.1,4.3c0.1,1.3,0.2,2.4,0.4,3.2s0.3,1.6,0.3,2l0.1,0.5L92.4,331.1z"/>
	<path class="st6" d="M96.6,332.3L86,335.7c-0.4,0.1-0.9-0.1-1-0.5l0,0c-0.1-0.4,0.1-0.9,0.6-1l10.6-3.3c0.4-0.1,0.9,0.1,1,0.5l0,0
		C97.3,331.8,97.1,332.2,96.6,332.3z"/>
	<path class="st6" d="M96.8,333l-10.6,3.3c-0.5,0.1-0.7,0.6-0.6,1s0.6,0.7,1,0.6c0,0,0.1,0,0.1,0l1.2-0.4l2.4,2.4
		c0.3,0.3,0.7,0.4,1.1,0.3l3.8-1.2c0.4-0.1,0.7-0.4,0.7-0.8l0.6-3.4l0.8-0.3c0.4-0.1,0.7-0.6,0.5-1C97.8,333.1,97.3,332.9,96.8,333
		L96.8,333z"/>
	<g class="st2">
		<path class="st4" d="M73.5,309.2c0.6-1,1.3-2,2.2-2.8c0.6-0.5,1.3-1,2-1.3c0.5-0.2,0.8-0.3,0.9-0.2s-0.8,1-2,2.4
			c-3.1,3.6-3.8,8.7-1.8,13.1c0.7,1.7,1.5,2.6,1.3,2.8s-0.4,0-0.8-0.4c-0.6-0.5-1.1-1.1-1.5-1.8c-0.7-1-1.2-2.1-1.4-3.3
			c-0.4-1.4-0.5-2.9-0.3-4.4"/>
	</g>
	<g class="st2">
		<path class="st4" d="M82.2,304.5c-0.9,0.3-1.8,0.3-2-0.2c-0.1-0.2,0-0.5,0.2-0.8c0.3-0.3,0.8-0.6,1.2-0.7c0.5-0.2,1-0.2,1.4-0.1
			c0.4,0.1,0.6,0.3,0.7,0.5"/>
	</g>
	<path class="st7" d="M95.8,338.6c0,0-0.3,0-0.8,0c-0.6,0-1.3,0.1-1.9,0.3c-0.6,0.2-1.2,0.5-1.7,0.9c-0.4,0.3-0.6,0.5-0.6,0.5
		c0.1-0.2,0.3-0.4,0.6-0.6c0.5-0.4,1.1-0.8,1.7-1c0.6-0.2,1.3-0.3,1.9-0.3C95.3,338.5,95.6,338.5,95.8,338.6z"/>
	<path class="st7" d="M96.6,334.9c0,0-1.9,0.7-4.3,1.4s-4.3,1.3-4.3,1.3s1.9-0.7,4.3-1.4S96.6,334.9,96.6,334.9z"/>
	<path class="st7" d="M96.3,336.4c-0.3,0.2-0.7,0.3-1,0.4c-0.6,0.2-1.5,0.6-2.5,0.9s-1.9,0.6-2.5,0.8c-0.4,0.1-0.7,0.2-1.1,0.3
		c0.3-0.1,0.7-0.3,1-0.4l2.5-0.8l2.5-0.8C95.6,336.6,96,336.5,96.3,336.4z"/>
</g>
<g id="freepik--Character--inject-14">
	<path class="st1" d="M415.1,244.7c-11-10.2-30.5-9-40.2,2.5c-3.8,4.5-6.4,10.4-11.6,13.2c-8,4.2-17.8-1.1-26.8-0.3
		c-10.6,0.9-19.3,11.7-18,22.2c0.6,4.8,2.9,9.8,0.6,14.1c-2.9,5.4-11.1,5.6-14.6,10.7c-3.1,4.5-0.7,11.3,3.9,14.4s10.4,3.5,15.9,3.3
		s11.1-1,16.5,0.2c5.9,1.3,11,5,16.7,7.2c13.6,5.4,29.5,2.4,42-5.1s22.3-18.9,30.8-30.8"/>
	<g class="st10">
		<path class="st4" d="M415.1,244.7c-11-10.2-30.5-9-40.2,2.5c-3.8,4.5-6.4,10.4-11.6,13.2c-8,4.2-17.8-1.1-26.8-0.3
			c-10.6,0.9-19.3,11.7-18,22.2c0.6,4.8,2.9,9.8,0.6,14.1c-2.9,5.4-11.1,5.6-14.6,10.7c-3.1,4.5-0.7,11.3,3.9,14.4
			s10.4,3.5,15.9,3.3s11.1-1,16.5,0.2c5.9,1.3,11,5,16.7,7.2c13.6,5.4,29.5,2.4,42-5.1s22.3-18.9,30.8-30.8"/>
	</g>
	<path class="st1" d="M412.5,258.6c-9-8.8-25.6-7.5-33.1,2.5c-4.6,6.1-7.3,15.5-14.9,16.5c-5.1,0.7-10-3.2-15.2-2.8
		c-6.9,0.5-11.1,8.9-9.3,15.6s7.6,11.5,13.8,14.6c21.4,10.9,49.9,5.1,65.4-13.2"/>
	<polyline class="st11" points="616.2,280.9 604.6,264.5 619.7,253.9 630.2,275.3 616.9,280.8 	"/>
	<path class="st1" d="M629.6,272.3l8.2,14.8c0,0,17.8-3.4,19.5-0.8l-28.1,16.9l-13.7-22.5L629.6,272.3z"/>
	<g class="st12">
		<path class="st4" d="M628.3,291.1c-0.5,0.5-0.5,1.3,0,1.8c0.5,0.5,1.3,0.5,1.8,0c0.5-0.5,0.5-1.4,0-1.9
			C629.6,290.6,628.7,290.7,628.3,291.1"/>
	</g>
	<g class="st12">
		<path class="st4" d="M629.2,303.2l-1.3-2.3l27.4-15.3c0,0,1.6-0.2,2,0.8L629.2,303.2z"/>
	</g>
	<path class="st6" d="M638.1,286.7c0.1,0.1-0.6,0.6-1,1.5s-0.4,1.6-0.6,1.7s-0.4-0.9,0.1-1.9S638.1,286.5,638.1,286.7z"/>
	<path class="st6" d="M641.8,286.1c0.1,0.1-0.3,0.7-0.5,1.6s0.1,1.6,0,1.6s-0.7-0.6-0.5-1.7S641.7,286,641.8,286.1z"/>
	<path class="st6" d="M645.6,288.7c-0.1,0.1-0.7-0.5-0.8-1.4s0.4-1.6,0.5-1.6s0,0.7,0.1,1.5S645.7,288.6,645.6,288.7z"/>
	<path class="st6" d="M635.9,283.5c0,0.2-0.7,0.4-1.5,0.9s-1.2,1.1-1.3,1s0.1-0.9,1-1.5S635.9,283.4,635.9,283.5z"/>
	<path class="st6" d="M634.2,280.6c0,0.1-0.5,0.5-1.4,0.8c-0.9,0.4-1.8,0.5-2.8,0.5c-0.2,0-0.4,0-0.6-0.1c-0.3-0.1-0.5-0.4-0.5-0.7
		c0-0.3,0.2-0.5,0.4-0.7c0.2-0.1,0.4-0.2,0.6-0.2c0.3-0.1,0.7-0.2,1-0.2c0.6-0.1,1.2,0,1.8,0.1c1,0.2,1.5,0.6,1.5,0.6
		s-0.6-0.2-1.6-0.3c-0.6-0.1-1.1,0-1.7,0c-0.3,0-0.7,0.1-1,0.2c-0.3,0.1-0.6,0.3-0.6,0.4s0,0.1,0.1,0.1c0.2,0,0.3,0,0.5,0
		c0.3,0,0.7,0,1,0c0.6-0.1,1.1-0.2,1.7-0.3C633.1,280.8,633.6,280.7,634.2,280.6z"/>
	<path class="st6" d="M634.1,280.9c0,0-0.6-0.3-1.2-1.1c-0.3-0.5-0.6-1.1-0.7-1.6c-0.1-0.3-0.1-0.7-0.2-1.1
		c-0.1-0.5,0.1-0.9,0.5-1.3c0.2-0.2,0.6-0.2,0.8,0c0.2,0.1,0.3,0.3,0.5,0.4c0.2,0.3,0.4,0.6,0.6,0.9c0.2,0.6,0.3,1.2,0.3,1.8
		c-0.1,1-0.6,1.6-0.6,1.5c0.1-0.5,0.2-1,0.2-1.5c0-0.5-0.1-1.1-0.3-1.6c-0.1-0.3-0.3-0.6-0.5-0.8c-0.2-0.3-0.5-0.4-0.6-0.3
		c-0.2,0.2-0.3,0.5-0.2,0.8c0,0.3,0,0.7,0.1,1c0.1,0.5,0.3,1.1,0.6,1.6C633.7,280.4,634.2,280.8,634.1,280.9z"/>
	<polyline class="st6" points="573.3,222.6 609.3,279.1 628.9,265.8 595.8,197.7 	"/>
	<path class="st7" d="M576.2,210.2c0.2,0.1-0.9,2.4-1.4,5.4s-0.3,5.6-0.5,5.6C573.6,217.4,574.3,213.5,576.2,210.2L576.2,210.2z"/>
	<path class="st7" d="M572.6,210.4c0.2,0,0,2.5,0.4,5.5s1.2,5.3,1,5.4C572.4,217.9,571.9,214.1,572.6,210.4L572.6,210.4z"/>
	<path class="st6" d="M433.2,222.5l-24.6-7.6c-29.7,37.9-27.8,79.5,20.1,104.1l26.6-29.8L433.2,222.5z"/>
	<path class="st9" d="M435.6,216.4c-15.8,9.2-23.6,28.6-21.7,47.6c2.1,20.8,15.9,41.1,41.1,46.7l169.5-33.9
		c27.9-5.6,46-32.7,40.4-60.6c-0.3-1.4-0.6-2.9-1-4.3l0,0c-7.7-26.4-34.8-42.2-61.5-35.7L435.6,216.4z"/>
	<path class="st6" d="M435.6,216.4l1.6-0.4l4.6-1.1l17.8-4.4l65.6-15.9l45.3-11l25.3-6.1l6.5-1.6l3.4-0.6c0.6-0.1,1.1-0.2,1.7-0.3
		l1.7-0.1c1.2-0.1,2.3-0.2,3.5-0.3h3.5c1.2,0,2.3,0.1,3.5,0.2l1.8,0.2l0.9,0.1l0.9,0.2l3.5,0.7c1.2,0.3,2.3,0.7,3.4,1
		c0.6,0.2,1.2,0.3,1.7,0.5l1.7,0.7l1.7,0.7c0.6,0.2,1.1,0.5,1.7,0.7l3.2,1.7c1.1,0.6,2.1,1.3,3.1,2c0.5,0.3,1,0.6,1.5,1l1.5,1.1
		l1.5,1.1l0.7,0.6l0.7,0.6c7.6,6.8,13,15.7,15.6,25.5c2.7,10.2,2.1,21-1.5,30.9c-3.8,10.2-10.7,18.9-19.7,25
		c-3.8,2.6-7.9,4.6-12.3,6.1c-4.3,1.5-8.8,2.2-13.2,3.1l-26,5.2l-49.6,10l-87.2,17.4H455c-4.4-1-8.8-2.6-12.9-4.6
		c-7.6-3.8-14.1-9.5-18.9-16.5c-2.2-3.2-4-6.6-5.5-10.2c-0.4-0.9-0.6-1.8-1-2.6c-0.3-0.8-0.6-1.7-0.9-2.6c-0.3-0.9-0.5-1.7-0.7-2.6
		l-0.5-2.6c-0.2-0.8-0.3-1.7-0.5-2.5c-0.1-0.8-0.2-1.7-0.3-2.5s-0.1-1.7-0.2-2.5s-0.1-1.6-0.1-2.4c-0.1-5.9,0.7-11.7,2.5-17.3
		c1.4-4.5,3.4-8.8,6-12.7c1.9-2.9,4.2-5.5,6.7-7.8c0.5-0.5,1-0.9,1.5-1.3l1.4-1.1l1.2-0.9l1-0.6L435.6,216.4l-1.9,1.2l-1,0.7
		l-1.2,0.9l-1.3,1c-0.5,0.4-0.9,0.9-1.5,1.3c-2.5,2.3-4.8,5-6.6,7.9c-2.6,3.9-4.6,8.2-6,12.7c-1.7,5.6-2.5,11.4-2.4,17.3
		c0,0.8,0,1.6,0.1,2.4s0.1,1.6,0.2,2.5s0.2,1.7,0.3,2.5c0.1,0.9,0.3,1.7,0.5,2.5c0.2,0.8,0.4,1.7,0.5,2.6s0.5,1.7,0.7,2.6
		c0.2,0.9,0.5,1.7,0.9,2.6c0.3,0.9,0.6,1.7,1,2.6c1.5,3.5,3.3,6.9,5.5,10.1c2.4,3.3,5.1,6.4,8.1,9.1c3.3,2.8,6.9,5.2,10.7,7.2
		c4.1,2,8.4,3.5,12.8,4.5h-0.1l87.1-17.5l49.7-9.9l26-5.2c4.4-0.9,8.9-1.6,13.1-3.1c4.3-1.4,8.4-3.5,12.1-6
		c8.9-6,15.7-14.7,19.5-24.8c3.6-9.8,4.2-20.5,1.5-30.6c-2.6-9.8-7.9-18.5-15.4-25.3l-0.7-0.6l-0.7-0.5l-1.4-1.1l-1.4-1.1
		c-0.5-0.4-1-0.7-1.5-1c-1-0.6-2-1.4-3.1-1.9l-3.2-1.7c-0.5-0.3-1.1-0.5-1.6-0.7l-1.7-0.7l-1.7-0.7c-0.6-0.2-1.1-0.4-1.7-0.5
		c-1.1-0.3-2.3-0.7-3.4-1l-3.5-0.7l-0.9-0.2l-0.9-0.1l-1.7-0.2c-1.2-0.2-2.3-0.2-3.5-0.3h-3.5c-1.2,0.1-2.3,0.2-3.4,0.3l-1.7,0.1
		c-0.6,0.1-1.1,0.2-1.7,0.3l-3.3,0.6l-6.6,1.5l-25.3,6.1L525.3,195l-65.6,15.7l-17.9,4.3l-4.6,1.1L435.6,216.4z"/>
	<path class="st1" d="M455,310.7l-22.4,50.8c0,0,105.5-10.2,101-66.6L455,310.7z"/>
	<path class="st1" d="M515.4,197.2c0,0-50.7-49.2-115.2-28.5l35.4,47.7L515.4,197.2z"/>
	<path class="st1" d="M608,175.5c21.8,16,35.1,78.6,24.6,98.4c61.7-18,74.6-71,74.6-71C662.7,161.4,608,175.5,608,175.5z"/>
	<path class="st7" d="M423.2,287.5c0.1,0.1-3.3,4.1-7.6,9.1s-7.9,8.8-8,8.7s3.3-4.1,7.6-9.1S423.1,287.4,423.2,287.5z"/>
	<path class="st6" d="M707.2,203c0,0-0.1,0.2-0.4,0.7l-1.2,1.9l-1.9,3.2c-0.4,0.6-0.8,1.3-1.2,2l-1.5,2.2c-1.1,1.6-2.3,3.3-3.6,5.1
		l-4.7,5.8c-0.9,1-1.8,2-2.8,3.1s-1.9,2.2-3,3.2c-2.2,2.1-4.5,4.4-7.2,6.5c-5.7,4.8-11.9,8.9-18.5,12.2c-3.7,1.9-7.5,3.5-11.4,4.9
		c-2,0.7-4.1,1.4-6.1,2.1c-2.1,0.7-4.3,1.2-6.5,1.7c-17.5,3.9-36.8,7.8-57,12c-40.5,8.4-77.1,15.8-103.7,21.2l-31.4,6.4l-8.5,1.7
		l-2.2,0.4c-0.5,0.1-0.8,0.1-0.8,0.1l0.8-0.2l2.2-0.5l8.5-1.8l31.4-6.5l103.6-21.3c20.2-4.2,39.5-8.1,57-12c2.2-0.4,4.3-1,6.4-1.6
		c2.1-0.8,4.1-1.4,6.1-2.1c3.9-1.4,7.7-3,11.3-4.8c6.6-3.3,12.8-7.4,18.4-12.1c2.7-2.1,4.9-4.4,7.2-6.5c1.1-1,2.1-2.2,3.1-3.2
		s1.9-2.1,2.8-3.1l4.7-5.8c1.4-1.9,2.6-3.6,3.7-5.1l1.5-2.2l1.2-2l2-3.1c0.5-0.8,0.9-1.5,1.2-1.9S707.2,203,707.2,203z"/>
	<path class="st6" d="M546.7,292.5c0,0-0.1-0.1-0.2-0.2l-0.5-0.6l-1.8-2.4l-1.3-1.8c-0.5-0.6-0.9-1.4-1.4-2.2
		c-1-1.6-2.3-3.3-3.4-5.4l-1.8-3.2c-0.6-1.1-1.2-2.3-1.8-3.6c-1.3-2.4-2.4-5.2-3.7-8c-5.2-12.5-8.1-25.8-8.8-39.4
		c-0.1-3.1-0.2-6.1-0.1-8.8c0.1-1.4,0-2.7,0.2-4s0.2-2.5,0.3-3.7c0.2-2.4,0.5-4.4,0.8-6.3c0.2-0.9,0.3-1.8,0.4-2.6s0.3-1.5,0.5-2.1
		c0.3-1.3,0.5-2.2,0.6-3c0.1-0.3,0.1-0.6,0.2-0.8s0.1-0.3,0.1-0.3c0,0.1,0,0.2,0,0.3c0,0.2-0.1,0.5-0.1,0.8l-0.5,3
		c-0.1,0.6-0.3,1.4-0.4,2.1s-0.2,1.6-0.3,2.6c-0.2,1.9-0.6,3.9-0.7,6.3c-0.1,1.2-0.2,2.4-0.3,3.7s-0.1,2.6-0.1,4
		c-0.1,2.8,0,5.7,0.1,8.8c0.7,13.5,3.6,26.7,8.7,39.2c1.2,2.8,2.3,5.6,3.6,8c0.6,1.2,1.2,2.4,1.8,3.6l1.8,3.2
		c1.1,2.1,2.3,3.8,3.3,5.4c0.5,0.8,1,1.5,1.4,2.2s0.9,1.2,1.3,1.8c0.8,1,1.3,1.9,1.8,2.5l0.4,0.6
		C546.6,292.3,546.7,292.4,546.7,292.5z"/>
	<path class="st1" d="M499.1,240l-106.3,22c0,0-0.5,10.4,2.1,10.5c2.2,0.1,81.2-14.2,106.9-18.8c3.8-0.7,6.3-4.3,5.6-8
		c-0.1-0.4-0.2-0.7-0.3-1.1l0,0C505.9,241.3,502.5,239.3,499.1,240z"/>
	
		<ellipse transform="matrix(1.396295e-03 -1 1 1.396295e-03 349.5349 810.3664)" class="st5" cx="580.5" cy="230.2" rx="23.6" ry="25.4"/>
	<path class="st6" d="M605.9,230.2c0-0.1,0-0.3,0-0.4c0-0.3-0.1-0.7-0.1-1.2c0-0.3,0-0.5-0.1-0.9s-0.1-0.6-0.2-1s-0.1-0.8-0.2-1.2
		s-0.2-0.9-0.4-1.3c-0.3-1-0.7-2-1.1-3c-1.9-4-4.8-7.4-8.4-9.9c-3.1-2.1-6.7-3.6-10.4-4.2c-1-0.2-2-0.3-3.1-0.3
		c-0.5,0-1.1-0.1-1.6-0.1l-1.6,0.1H578l-0.8,0.1l-1.6,0.2l-1.6,0.4l-0.8,0.2l-0.8,0.3c-4.6,1.5-8.6,4.2-11.7,7.9
		c-6.9,8.2-6.9,20.1,0,28.3c3,3.7,7.1,6.5,11.7,7.9l0.8,0.3l0.8,0.2l1.6,0.4l1.6,0.2l0.8,0.1h0.8l1.6,0.1c0.5,0,1.1,0,1.6,0
		c1,0,2.1-0.1,3.1-0.3c3.7-0.6,7.2-2,10.4-4.1c4.7-3,8.1-7.6,9.6-12.9c0.1-0.5,0.3-0.9,0.4-1.3s0.2-0.8,0.2-1.2s0.1-0.7,0.2-1
		s0-0.6,0.1-0.9c0-0.5,0.1-0.9,0.1-1.2C605.9,230.5,605.9,230.3,605.9,230.2c0,0.1,0,0.2,0,0.4v1.2c0,0.3,0,0.5,0,0.9
		s-0.1,0.7-0.2,1s-0.1,0.8-0.2,1.2s-0.2,0.9-0.3,1.3c-0.3,1-0.6,2.1-1.1,3.1c-0.5,1.2-1.2,2.3-1.9,3.4c-1.8,2.6-4,4.9-6.6,6.7
		c-3.2,2.2-6.8,3.6-10.6,4.3c-1,0.2-2.1,0.3-3.1,0.3c-0.5,0-1.1,0.1-1.6,0.1l-1.6-0.1h-0.8l-0.8-0.1l-1.7-0.2l-1.7-0.4l-0.8-0.2
		l-0.8-0.3c-4.7-1.5-8.8-4.3-11.9-8.1c-7-8.4-7-20.6,0-28.9c3.1-3.8,7.3-6.5,12-8l0.8-0.3l0.8-0.2l1.7-0.4l1.7-0.2l0.8-0.1h0.8
		l1.6-0.1c0.5,0,1.1,0.1,1.6,0.1c1,0,2.1,0.2,3.1,0.3c3.8,0.6,7.3,2.1,10.5,4.2c2.6,1.8,4.8,4.1,6.6,6.7c1.3,2,2.3,4.2,2.9,6.5
		c0.1,0.5,0.3,0.9,0.3,1.3s0.1,0.8,0.2,1.2s0.1,0.7,0.2,1s0,0.6,0,0.9c0,0.5,0,0.9,0,1.2C605.9,229.9,605.9,230.1,605.9,230.2z"/>
	<path class="st1" d="M279.9,315.6c-2.9,1.3-6.3,1.1-9.5,0.8s-6.4-0.9-9.6-0.3c-4.9,1-9.2,4.6-14.2,4.4c-6.9-0.4-11-7.8-17.1-11
		c-7.4-4-17.3-1.5-23.3-8.9c-3.6-4.5-4.2-10.7-1.4-15.8c4.3-7.8,14.3-9.1,22.1-6.3c6.7,2.4,12.2,7.3,17.4,12.1
		c1.8,1.6,3.6,3.3,5.4,4.9c5.9,5.1,13.7,7.6,21.5,6.8l0,0c3.7-0.4,7.5,0.7,10.4,3c0.8,0.6,1.4,1.5,1.8,2.4l0,0
		c0.4,0.9,0.6,1.9,0.5,2.9C284,313.1,282.3,314.5,279.9,315.6z"/>
	<g class="st10">
		<path class="st4" d="M279.9,315.6c-2.9,1.3-6.3,1.1-9.5,0.8s-6.4-0.9-9.6-0.3c-4.9,1-9.2,4.6-14.2,4.4c-6.9-0.4-11-7.8-17.1-11
			c-7.4-4-17.3-1.5-23.3-8.9c-3.6-4.5-4.2-10.7-1.4-15.8c4.3-7.8,14.3-9.1,22.1-6.3c6.7,2.4,12.2,7.3,17.4,12.1
			c1.8,1.6,3.6,3.3,5.4,4.9c5.9,5.1,13.7,7.6,21.5,6.8l0,0c3.7-0.4,7.5,0.7,10.4,3c0.8,0.6,1.4,1.5,1.8,2.4l0,0
			c0.4,0.9,0.6,1.9,0.5,2.9C284,313.1,282.3,314.5,279.9,315.6z"/>
	</g>
	<path class="st1" d="M166.8,312.2c-2-3.5-8-3.5-11.6-1.8s-6.1,5.1-8.5,8.3s-5.2,6.4-9,7.7c-4.1,1.4-8.5,0.3-12.8,0.3
		c-4.3,0-9.3,2.1-10,6.3c-0.4,2.5,0.4,5,2.1,6.8c1.7,1.6,3.7,2.9,5.9,3.8c5.7,2.3,11.8,3.5,18,3.5c8-0.1,15.5-4,20.3-10.4
		c4.7-6.4,10.9-17.5,5.4-24.6"/>
	<g class="st10">
		<path class="st4" d="M166.8,312.2c-2-3.5-8-3.5-11.6-1.8s-6.1,5.1-8.5,8.3s-5.2,6.4-9,7.7c-4.1,1.4-8.5,0.3-12.8,0.3
			c-4.3,0-9.3,2.1-10,6.3c-0.4,2.5,0.4,5,2.1,6.8c1.7,1.6,3.7,2.9,5.9,3.8c5.7,2.3,11.8,3.5,18,3.5c8-0.1,15.5-4,20.3-10.4
			c4.7-6.4,10.9-17.5,5.4-24.6"/>
	</g>
	<path class="st1" d="M57.8,332.7c-1.8,0.6-3.4,1.7-4.7,3.1c-1.3,1.4-1.7,3.5-1.2,5.3c0.6,1.9,2.6,2.9,4.5,2.4
		c0.9-0.3,1.7-1.1,2.7-1.3c1.6-0.3,3,1.1,4.5,1.4c2.4,0.4,4.6-2,4.5-4.3s-2-4.2-3.9-5.6C62.4,332.4,60,332,57.8,332.7"/>
	<g class="st10">
		<path class="st4" d="M57.8,332.7c-1.8,0.6-3.4,1.7-4.7,3.1c-1.3,1.4-1.7,3.5-1.2,5.3c0.6,1.9,2.6,2.9,4.5,2.4
			c0.9-0.3,1.7-1.1,2.7-1.3c1.6-0.3,3,1.1,4.5,1.4c2.4,0.4,4.6-2,4.5-4.3s-2-4.2-3.9-5.6C62.4,332.4,60,332,57.8,332.7"/>
	</g>
	<path class="st7" d="M494.4,169.4c-8.2-0.4-12.2,5.8-16.8,7s-9.6,1.5-14-0.3c-5.7-2.3-9.6-7.6-14.6-11.2c-10-7.2-24.9-6.8-34.4,1
		c-0.2,5.4,4.4,9.8,9,12.8s17,7.5,18.6,12.7c1.2,3.9-7.2,7.2-5.1,10.7s9.1,3.1,13,2.5c24.4-4.2,15.9,3.3,23.4,2.6
		c0,0,15.8-4,28.2-6.1"/>
	<polyline class="st11" points="576.7,313.2 568.8,294.8 585.7,287.4 591.6,310.6 577.4,313.2 	"/>
	<path class="st1" d="M591.6,307.6l5,16.1c0,0,18.1,0.4,19.3,3.3l-31,10.7l-8.8-24.8L591.6,307.6z"/>
	<g class="st12">
		<path class="st4" d="M586.5,325.7c-0.6,0.4-0.7,1.2-0.4,1.8c0.4,0.6,1.1,0.7,1.7,0.4c0.6-0.4,0.8-1.2,0.4-1.9
			c-0.5-0.6-1.3-0.6-1.8-0.2"/>
	</g>
	<g class="st12">
		<path class="st4" d="M584.9,337.7l-0.8-2.5l30-9.3c0,0,1.6,0.1,1.8,1.1L584.9,337.7z"/>
	</g>
	<path class="st6" d="M597,323.4c0,0.1-0.7,0.5-1.3,1.2s-0.8,1.5-0.9,1.5s-0.2-1,0.5-1.9S597,323.2,597,323.4z"/>
	<path class="st6" d="M600.7,323.6c0.1,0.1-0.5,0.6-0.8,1.4s-0.2,1.5-0.4,1.6s-0.5-0.8-0.2-1.8S600.7,323.4,600.7,323.6z"/>
	<path class="st6" d="M603.9,326.8c-0.1,0.1-0.6-0.6-0.5-1.6s0.7-1.5,0.8-1.4s-0.2,0.7-0.2,1.5S604.1,326.8,603.9,326.8z"/>
	<path class="st6" d="M595.5,319.8c0,0.2-0.8,0.2-1.6,0.5s-1.4,0.9-1.5,0.8s0.3-0.9,1.3-1.3S595.5,319.7,595.5,319.8z"/>
	<path class="st6" d="M594.4,316.6c-0.5,0.3-1,0.5-1.6,0.5c-0.6,0.1-1.2,0.1-1.8,0.1c-0.4,0-0.7-0.1-1-0.2c-0.2,0-0.4-0.1-0.6-0.2
		c-0.3-0.2-0.4-0.5-0.3-0.8c0.1-0.3,0.3-0.5,0.5-0.6c0.2-0.1,0.4-0.1,0.6-0.1c0.4,0,0.7,0,1.1,0c0.6,0.1,1.2,0.2,1.8,0.4
		c1,0.4,1.4,0.9,1.3,1s-0.6-0.3-1.5-0.6c-0.5-0.2-1.1-0.3-1.7-0.3c-0.3,0-0.7,0-1,0c-0.4,0-0.6,0.1-0.7,0.3s0,0.1,0.1,0.2
		c0.1,0.1,0.3,0.1,0.4,0.1c0.3,0.1,0.7,0.1,1,0.2c0.6,0.1,1.1,0.1,1.7,0C593.4,316.6,593.9,316.6,594.4,316.6z"/>
	<path class="st6" d="M594.3,316.9c0,0-0.5-0.4-0.9-1.4c-0.2-0.6-0.4-1.2-0.4-1.8c0-0.4,0-0.7,0.1-1.1c0-0.5,0.3-0.9,0.7-1.1
		c0.3-0.1,0.6,0,0.8,0.2c0.1,0.2,0.3,0.3,0.4,0.5c0.2,0.3,0.3,0.7,0.4,1c0.1,0.6,0.1,1.2-0.1,1.8c-0.3,1-0.9,1.4-0.9,1.4
		c0.2-0.5,0.4-1,0.5-1.5c0.1-0.5,0.1-1.1,0-1.6c-0.1-0.3-0.2-0.6-0.3-0.9c-0.2-0.3-0.4-0.5-0.5-0.5c-0.2,0.2-0.3,0.4-0.4,0.7
		c-0.1,0.3-0.1,0.7-0.1,1c0,0.6,0.1,1.1,0.2,1.6C594,316.3,594.4,316.8,594.3,316.9z"/>
	<path class="st6" d="M495.8,170c0,0-14.7,29.1-4.8,35.9c9.9,6.8,55.9,41.4,55.9,41.4l23.5,62.7l22-9L574,227.6L527.7,186L495.8,170
		z"/>
	<path class="st7" d="M552.2,235.8c0.1,0.1-1.4,2.1-2.5,5s-1.4,5.4-1.6,5.4C548.2,242.3,549.7,238.6,552.2,235.8z"/>
	<path class="st7" d="M548.6,235.2c0.2,0-0.5,2.4-0.7,5.4s0,5.5-0.1,5.5c-0.5-1.8-0.6-3.7-0.4-5.5
		C547.4,238.7,547.9,236.9,548.6,235.2z"/>
	<path class="st7" d="M572.6,309.1c-0.1-0.1-0.1-0.2-0.1-0.3c-0.1-0.2-0.2-0.5-0.4-0.9c-0.3-0.9-0.8-2.1-1.4-3.6
		c-1.2-3.2-3-7.8-5.1-13.5s-4.6-12.6-7.3-20.4c-0.7-1.9-1.3-4-2-6s-1.2-4.2-2.1-6.3c-1.7-4.2-3.7-8.4-5.9-12.7l0.1,0.1
		c-2.5-2.1-5.1-4.3-7.8-6.5c-2.1-1.7-4.2-3.4-6.3-5l-6.2-4.7c-4.1-3.1-8-6.1-11.8-8.8s-7.6-5.1-11-7.5c-3.2-2.1-6.3-4.6-9.1-7.3
		c-1.2-1.2-2.3-2.5-3.2-3.9c-0.8-1.3-1.4-2.7-1.8-4.2c-0.5-2.4-0.6-4.8-0.1-7.2c0.3-1.5,0.7-3,1.3-4.4c0.2-0.5,0.4-0.9,0.5-1.1
		c0-0.1,0.1-0.3,0.2-0.4c0,0,0,0.1-0.1,0.4s-0.2,0.6-0.4,1.1c-0.5,1.4-0.9,2.9-1.2,4.4c-0.4,2.4-0.4,4.8,0.2,7.1
		c0.4,1.4,1,2.8,1.8,4.1c0.9,1.4,2,2.7,3.2,3.9c2.8,2.6,5.8,5,9.1,7.2c3.4,2.3,7.2,4.7,11,7.4s7.8,5.7,11.8,8.8l6.2,4.7
		c2.1,1.6,4.2,3.3,6.3,5c2.7,2.2,5.3,4.4,7.8,6.5l0,0v0c2.2,4.3,4.2,8.5,5.9,12.7c0.8,2.1,1.5,4.2,2.1,6.3c0.6,2.1,1.3,4.1,1.9,6
		c2.6,7.8,5.1,14.7,7.2,20.4l4.9,13.5c0.6,1.6,1,2.8,1.3,3.7l0.3,1C572.5,308.9,572.5,309,572.6,309.1z"/>
	<polygon class="st6" points="513.8,179.3 542.2,183.3 556.7,187 536.8,194.2 	"/>
	<path class="st6" d="M479.1,177.3c-0.2,0.3-0.4,0.5-0.6,0.7c-0.6,0.6-1.2,1.1-1.8,1.6c-4.2,3.4-9.3,5.5-14.7,6.1
		c-0.8,0.1-1.6,0.1-2.4,0.1c-0.3,0-0.6,0-0.9-0.1c0-0.1,1.3-0.1,3.3-0.4c2.6-0.4,5.2-1.1,7.6-2.1c2.5-1,4.8-2.4,6.9-3.9
		C478.1,178.1,479.1,177.2,479.1,177.3z"/>
	<path class="st1" d="M499.5,135.8l-5.5,41.1c0,0,18.2-1.2,31,3.1s20.7,4.1,20.7,4.1l-2.7-25.6l9.6-21l4.2,24.6l19.7,20.2l12.8-2.9
		L576,157.2l-9.2-45.3l0,0c-0.8-3.8-2.8-7.2-5.8-9.6l-0.4-0.3l-19.3-10.8l-6.5,0.1c-5.5,0.1-10.9,0.7-16.3,1.7
		c-3.4,0.6-6.4,2.3-8.8,4.7l0,0c-2.1,2.4-3.7,5.3-4.5,8.4L499.5,135.8z"/>
	<path class="st6" d="M560.8,118.6c-0.1,0.5-0.3,0.9-0.5,1.3l-1.5,3.5c-1.3,3-3,7.1-5,11.6l-5.1,11.5c-0.6,1.4-1.2,2.6-1.6,3.5
		c-0.2,0.4-0.4,0.8-0.6,1.3c0.1-0.5,0.2-0.9,0.4-1.3c0.3-0.9,0.8-2.1,1.4-3.5c1.2-3,3-7.1,5-11.6s3.8-8.6,5.2-11.5l1.6-3.5
		C560.3,119.4,560.5,118.9,560.8,118.6z"/>
	<path class="st1" d="M506.2,111.4c3.8,10.5,11,34.4,14.5,43.6c1.1,2.8,2.9,5.3,5.2,7.1l39,27.6l9-11.7l-29.2-28.2L529,103.2
		c-2.2-6.2-11.4-9.6-17.2-6.3l0,0C507.5,99.4,504.6,106.6,506.2,111.4z"/>
	<path class="st6" d="M529.8,105.1c0,0,0.1,0.3,0.3,0.8l0.8,2.4c0.7,2.1,1.8,5.2,3.1,9.1l11,32.4l-0.1-0.1l29.3,28.2l0.2,0.2
		l-0.1,0.2l-6.5,8.4c-0.9,1.1-1.7,2.3-2.5,3.3l-0.2,0.2l-0.2-0.1L535,168.4l-6.7-4.8l-1.6-1.2c-0.5-0.4-1.1-0.8-1.6-1.2
		c-1-0.9-1.8-1.9-2.5-3c-0.7-1.1-1.2-2.2-1.6-3.4l-1.3-3.3c-0.8-2.2-1.6-4.3-2.3-6.3c-2.9-8-5-14.5-6.4-19.1c-0.7-2.3-1.2-4-1.6-5.2
		c-0.2-0.6-0.3-1-0.4-1.4c0-0.2-0.1-0.3-0.1-0.5c0,0,0.1,0.1,0.2,0.5s0.3,0.8,0.5,1.3c0.4,1.2,1,2.9,1.7,5.2c1.5,4.5,3.7,11,6.6,19
		c0.7,2,1.5,4.1,2.3,6.3c0.4,1.1,0.9,2.2,1.3,3.3c0.4,1.1,1,2.2,1.6,3.3c0.7,1.1,1.5,2,2.4,2.9c0.5,0.4,1,0.8,1.5,1.2l1.6,1.2
		l6.7,4.9l30,21.5h-0.3l2.5-3.3l6.5-8.4v0.3L544.7,150l0,0V150c-4.5-13.5-8.2-24.7-10.8-32.5l-3-9.1l-0.8-2.4
		C529.8,105.4,529.8,105.1,529.8,105.1z"/>
	<path class="st6" d="M526,99.4c-0.1,0.1-0.7-0.6-2-1.4c-3.3-2.1-7.6-2.3-11.1-0.5c-1.3,0.7-2,1.3-2.1,1.2c0.5-0.6,1.2-1.2,1.9-1.5
		c3.6-2,8.1-1.8,11.5,0.6C525,98.1,525.6,98.7,526,99.4z"/>
	<path class="st6" d="M576.9,157.8c0,0.2-1.8,0-4,0.5s-3.7,1.5-3.8,1.4c1-1,2.3-1.6,3.7-1.9C574.1,157.3,575.5,157.3,576.9,157.8z"
		/>
	<path class="st5" d="M511.4,127.2c-0.1,0-0.3,0.1-0.4,0.1c-0.4,0.1-0.7,0.1-1.1,0.2c-1.2,0.1-2.4,0-3.6-0.2c-1.5-0.4-3-1.1-4.2-2.2
		c-0.1-0.1-0.2-0.2-0.3-0.3c1.4,1,2.9,1.8,4.5,2.2C508,127.3,509.7,127.4,511.4,127.2z"/>
	<path class="st5" d="M514.4,136.1c-0.6-0.4-1.2-0.8-1.8-1.1c-1.6-0.7-3.3-1.2-5-1.3c-1.7-0.1-3.5-0.1-5.2,0.1l-1.6,0.1
		c-0.2,0-0.4,0-0.6,0c0.2-0.1,0.4-0.1,0.6-0.1c0.4-0.1,0.9-0.1,1.6-0.2c1.7-0.2,3.5-0.3,5.2-0.2c1.7,0.1,3.4,0.6,5,1.4
		c0.5,0.2,0.9,0.5,1.3,0.8C514.1,135.8,514.3,135.9,514.4,136.1z"/>
	<g class="st8">
		<path d="M509.4,120.9c0,0,1,15.6,2.2,22.9s3.5,14.6,8.6,19.8s12.6,7.5,19.8,9c-2.3-1.8-4.6-3.6-6.9-5.4c-2.9-2.4-7.1-4.8-9.5-7.7
			c-4.5-5.7-5.5-12.9-7.8-19.7C513.8,133.3,511.5,127.3,509.4,120.9"/>
	</g>
	<path class="st5" d="M536.5,127c-0.3,0.2-0.5,0.3-0.8,0.4c-0.8,0.3-1.7,0.4-2.5,0.4c-2.2,0-5-1-8.2-0.7c-2.8,0.2-5.4,1.1-7.8,2.5
		c-0.7,0.4-1.4,0.9-2,1.4l-0.5,0.4c-0.1,0.1-0.2,0.1-0.2,0.1c0.8-0.8,1.7-1.6,2.7-2.1c2.4-1.5,5.1-2.4,7.9-2.6
		c3.3-0.3,6.2,0.8,8.3,0.8c0.8,0,1.7-0.1,2.5-0.3C536.2,127.2,536.5,127,536.5,127z"/>
	<path class="st5" d="M533.6,119.5c-0.1,0-0.1,0.1-0.2,0.1l-0.6,0.3c-0.5,0.3-1.2,0.7-2.2,1.1c-4.9,2.3-10.2,3.5-15.6,3.7
		c-1,0-1.9,0-2.4,0H512c-0.1,0-0.2,0-0.2,0h0.2h0.7c0.6,0,1.4,0,2.4-0.1c2.7-0.1,5.3-0.5,7.9-1.1c2.6-0.6,5.1-1.5,7.6-2.6
		c0.9-0.4,1.7-0.8,2.2-1l0.6-0.3C533.6,119.5,533.6,119.5,533.6,119.5z"/>
	<path class="st5" d="M555.8,127.7l-0.3-0.1c-0.3-0.1-0.5-0.2-0.8-0.3c-0.9-0.4-1.7-0.9-2.4-1.6c-1.9-1.6-3.7-4.7-6.6-7
		c-3.3-2.6-7.2-4.3-11.4-4.7l-0.8-0.1c-0.1,0-0.2,0-0.3,0c1.3,0,2.7,0.2,4,0.5c3.2,0.7,6.1,2.2,8.6,4.2c1.4,1.1,2.6,2.4,3.7,3.8
		c0.9,1.1,1.8,2.2,2.9,3.2c0.7,0.7,1.5,1.2,2.4,1.6C555.4,127.6,555.8,127.6,555.8,127.7z"/>
	<path class="st5" d="M554.6,132.4c-0.3-0.1-0.6-0.1-0.8-0.2c-0.7-0.3-1.4-0.7-2-1.2c-0.9-0.8-1.7-1.6-2.5-2.5c-0.9-1.1-1.9-2.1-3-3
		c-1.1-0.9-2.4-1.5-3.8-1.6c-1.1-0.2-2.3-0.2-3.5-0.1c-1,0.1-1.8,0.2-2.3,0.3l-0.6,0.1c-0.1,0-0.1,0-0.2,0c0.1,0,0.1-0.1,0.2-0.1
		l0.6-0.1c0.5-0.1,1.3-0.2,2.3-0.3c1.2-0.1,2.3-0.1,3.5,0c1.5,0.2,2.8,0.8,4,1.7c1.1,0.9,2.1,2,3,3.1c0.7,0.9,1.5,1.7,2.4,2.5
		c0.6,0.5,1.3,0.9,2,1.3C554.3,132.3,554.6,132.4,554.6,132.4z"/>
	<path class="st5" d="M569.9,129.2c-0.7-0.2-1.5-0.3-2.2-0.2c-0.8,0.1-1.6,0.2-2.4,0.5c-0.9,0.3-1.8,0.7-2.8,1.2
		c-0.9,0.4-1.9,0.8-2.8,1c-0.8,0.2-1.6,0.2-2.5,0.1c-0.6-0.1-1.1-0.3-1.6-0.5c-0.2-0.1-0.3-0.2-0.5-0.3c0.6,0.4,1.4,0.6,2.1,0.7
		c0.8,0.1,1.6,0,2.4-0.2c1-0.2,1.9-0.6,2.8-1c1-0.4,1.9-0.9,2.8-1.2c0.8-0.3,1.6-0.4,2.4-0.5c0.6,0,1.1,0,1.7,0.2
		C569.6,129.1,569.8,129.2,569.9,129.2z"/>
	<path class="st5" d="M571.5,134.7c-0.8-0.6-1.8-1-2.8-1c-1.1,0-2.1,0.2-3.1,0.6c-1.2,0.5-2.4,1.2-3.4,2c-1.1,0.8-2.2,1.5-3.4,2.1
		c-1,0.5-2.1,0.8-3.2,0.9c-0.7,0-1.5-0.1-2.2-0.3c-0.3-0.1-0.5-0.2-0.7-0.4c0.9,0.4,1.9,0.6,2.9,0.6c1.1-0.1,2.1-0.4,3.1-0.9
		c1.2-0.6,2.3-1.3,3.3-2.1c1.1-0.8,2.2-1.5,3.5-2c1-0.4,2.1-0.6,3.2-0.5c0.7,0,1.5,0.3,2.1,0.6C571.1,134.3,571.3,134.5,571.5,134.7
		z"/>
	<g class="st8">
		<path d="M554.9,150.8c2-8.2,2.4-17.1,2.7-25.5c-0.7,2.9-2.5,5.5-3.6,8.3c-0.5,1.3-1.4,3.8-1.4,3.8l2.3,13.2"/>
	</g>
	<path class="st6" d="M541.7,54.4c-0.2,1.5-1.3,2.8-2.8,3.3c-0.8,0.3-1.7,0.3-2.5,0.6c-0.9,0.2-1.4,1-1.4,1.9
		c0.1,0.6,0.7,1.1,1.2,1.5s0.9,1.1,0.6,1.7c-0.3,0.6-1.2,0.7-1.7,1.2c-0.5,0.6-0.4,1.5,0.1,2.1c0.5,0.5,1.1,1,1.8,1.4
		c0.7,0.4,1.1,1,1.4,1.7"/>
	<path class="st6" d="M571.3,67.4c2.2-4.7,0.6-10.4-2.8-14.3s-8.3-6-13.3-7.4c-0.7-0.2-1.6-0.3-2.1,0.2c-0.4,0.5-0.3,1.3,0.1,1.8
		c0.5,0.5,1,0.8,1.7,1c-2-1-4.2-1.6-6.4-1.8c-0.8-0.1-1.6,0.1-2.3,0.5c-0.7,0.4-1.1,1.2-0.9,2c0.2,0.6,0.9,1,1.5,0.8
		c0.1,0,0.3-0.1,0.4-0.2c-2.1-0.2-4.3,0.3-6.1,1.4c-1.3,0.8-2.5,2.2-2.1,3.7c0.3,0.8,0.7,1.6,1.1,2.4c0.5,1.6-0.2,3.2-0.8,4.7
		c-1,2.4-1.3,4.9-1,7.5c0.3,2.6,1.8,4.8,4,6.2"/>
	<path class="st11" d="M540.7,106.6c-5.5-1.5-8.7-7.1-7.2-12.5c0-0.1,0-0.2,0.1-0.2l9.2-31.1c2.1-7.8,10.1-12.5,18-10.4
		c0.1,0,0.3,0.1,0.4,0.1l0.7,0.3c7.2,2.6,11.3,10.4,9.2,17.8c-1.9,6.9-4.1,14.5-5.4,18.1c-2.8,7.4-10.7,5.9-10.7,5.9l-1.9,5.6
		C551.2,105.2,545.9,108,540.7,106.6z"/>
	<path class="st13" d="M555,94.4c-3.5-1.2-6.5-3.4-8.7-6.3c0,0,0.4,6.2,8,8.2L555,94.4z"/>
	<path class="st6" d="M553.6,57c-0.6-1.3-1.4-4.3-2.4-5.3s-2.7-0.7-4.2-0.3c-1.5,0.4-2.7,1.5-3.2,3c-2,5.4-2.2,10.5-3.7,15.7
		c-0.1,0.3-0.2,0.7-0.1,1.1c0.3,0.9,1.3,1.2,2.2,1.3c2.3,0.3,3.5-1.3,4.5-3.3c0.4-1.2,0.6-2.5,0.8-3.7c0.3-3.6,2.4-6.8,5.7-8.4
		L553.6,57z"/>
	<path class="st11" d="M544,67c-0.1-0.1-4.6-3.4-6.3,1.8s3.8,5.8,3.9,5.6S544,67,544,67z"/>
	<path class="st13" d="M540.7,72c0,0-0.1,0-0.3,0.1c-0.2,0-0.5-0.1-0.7-0.2c-0.5-0.7-0.7-1.5-0.4-2.3c0.1-0.4,0.4-0.9,0.7-1.2
		c0.2-0.3,0.5-0.5,0.9-0.5c0.2,0,0.4,0.2,0.5,0.4c0,0.2,0,0.3,0,0.3s0.1-0.1,0.2-0.3c0-0.1,0-0.3-0.1-0.4c-0.1-0.2-0.3-0.3-0.5-0.3
		c-0.5-0.1-0.9,0.1-1.2,0.5c-0.4,0.4-0.6,0.8-0.8,1.3c-0.4,0.9-0.1,2,0.6,2.7c0.3,0.2,0.6,0.2,0.9,0.1C540.6,72.1,540.7,72,540.7,72
		z"/>
	<path class="st6" d="M551.6,58.1c2.5-1.7,5.2-0.9,6.9,0.1s3.2,2.5,5,3.4s4.1,1.3,5.7,0c1.1-1,1.8-2.5,1.8-4c0.2-2.9-0.7-5.8-2.6-8
		c-0.5-0.6-1.3-1.1-1.9-0.8c-0.8,0.4-0.7,1.6-0.4,2.5c0,0-8.7-3.2-14-1.4S551.6,58.1,551.6,58.1z"/>
	<path class="st7" d="M554.8,45.6c0,0,0.1,0.4,0.4,1c0.4,0.9,1,1.6,1.7,2.3c1,1,2.2,1.8,3.5,2.4c0.8,0.4,1.5,0.6,2.4,0.8
		c0.8,0.2,1.8,0.3,2.7,0.6c0.9,0.2,1.8,0.7,2.5,1.3c0.7,0.6,1.2,1.3,1.5,2.1c0.3,0.7,0.4,1.6,0.3,2.4c-0.1,0.7-0.3,1.3-0.7,1.9
		c-0.6,0.8-1.4,1.5-2.3,1.8c-0.3,0.1-0.5,0.1-0.8,0.1c-0.2,0-0.3,0-0.3,0s0.4,0,1-0.3c0.9-0.3,1.6-1,2.1-1.8
		c0.3-0.5,0.6-1.2,0.6-1.8c0.1-0.7,0-1.5-0.3-2.2c-0.3-0.8-0.8-1.5-1.4-2c-0.7-0.5-1.5-0.9-2.3-1.1c-0.9-0.2-1.8-0.4-2.7-0.6
		c-0.8-0.2-1.7-0.5-2.4-0.8c-1.3-0.6-2.5-1.5-3.5-2.6c-0.7-0.7-1.2-1.5-1.6-2.5c-0.1-0.3-0.2-0.5-0.2-0.8
		C554.8,45.8,554.8,45.7,554.8,45.6z"/>
	<path class="st7" d="M549.1,47.2c0,0,0.1,0.4,0.4,1c0.4,0.9,1,1.7,1.8,2.4c1.1,1,2.4,1.7,3.8,2.2c1.7,0.5,3.5,1,5.3,1.2
		c1.8,0.3,3.6,0.8,5.3,1.5c0.8,0.4,1.4,1,1.8,1.8c0.3,0.7,0.3,1.5,0.1,2.2c-0.3,1-1,1.9-1.8,2.4c-0.2,0.2-0.5,0.3-0.7,0.4
		c-0.1,0-0.2,0.1-0.3,0.1c0,0,0.3-0.2,0.9-0.6c0.8-0.6,1.4-1.4,1.6-2.4c0.2-0.6,0.1-1.3-0.1-1.9c-0.3-0.7-0.9-1.2-1.6-1.6
		c-1.7-0.7-3.4-1.2-5.2-1.5c-1.8-0.3-3.6-0.7-5.4-1.3c-1.5-0.5-2.8-1.3-3.9-2.3c-0.7-0.7-1.3-1.6-1.7-2.5c-0.1-0.3-0.2-0.5-0.2-0.8
		C549.1,47.4,549.1,47.3,549.1,47.2z"/>
	<path class="st6" d="M566,74.1c-0.2,0.6-0.9,1-1.5,0.8c-0.6-0.2-1-0.8-0.9-1.4c0,0,0,0,0,0c0.2-0.6,0.9-1,1.5-0.8
		C565.8,72.8,566.2,73.4,566,74.1C566,74.1,566,74.1,566,74.1z"/>
	<path class="st6" d="M568.2,73.4c-0.2,0.1-0.8-0.8-2.1-1.3s-2.4-0.1-2.5-0.3s0.2-0.3,0.7-0.5c1.4-0.4,2.8,0.1,3.7,1.3
		C568.3,73.1,568.3,73.4,568.2,73.4z"/>
	<path class="st6" d="M553.7,70.5c-0.2,0.6-0.9,1-1.5,0.8c-0.6-0.2-1-0.8-0.8-1.4c0,0,0,0,0,0c0.2-0.6,0.9-1,1.5-0.8
		C553.5,69.2,553.8,69.9,553.7,70.5C553.7,70.5,553.7,70.5,553.7,70.5z"/>
	<path class="st6" d="M555.9,69.4c-0.2,0.1-0.8-0.8-2.1-1.3s-2.4-0.1-2.5-0.3s0.2-0.3,0.7-0.5c0.7-0.2,1.4-0.2,2,0.1
		c0.7,0.2,1.2,0.6,1.6,1.2C555.9,69,556,69.4,555.9,69.4z"/>
	<path class="st6" d="M557.2,80.3c0.7,0,1.5,0.1,2.2,0.3c0.3,0.1,0.7,0.1,0.8-0.1c0.1-0.3,0.2-0.7,0.1-1c0-0.9-0.1-1.8-0.1-2.8
		c-0.2-2.4-0.1-4.7,0.1-7.1c0.3,2.3,0.5,4.7,0.5,7.1c0,1,0,1.9,0,2.8c0.1,0.5,0,0.9-0.3,1.3c-0.2,0.2-0.4,0.3-0.7,0.3
		c-0.2,0-0.4,0-0.6-0.1C558.6,80.9,557.9,80.6,557.2,80.3z"/>
	<path class="st6" d="M553.2,79.9c0.2,0-0.3,1.4,0.6,2.8s2.3,1.7,2.3,1.9s-0.4,0.2-1,0c-0.8-0.3-1.5-0.8-1.9-1.5
		c-0.4-0.7-0.6-1.5-0.4-2.3C552.9,80.1,553.1,79.8,553.2,79.9z"/>
	<path class="st6" d="M557.9,64.6c-0.3,0.3-1.4-0.3-3-0.6c-1.6-0.3-2.8-0.3-2.9-0.7c0-0.2,0.3-0.4,0.9-0.6c1.6-0.4,3.2,0,4.5,1
		C557.8,64.1,558,64.5,557.9,64.6z"/>
	<path class="st6" d="M569.1,69.7c-0.3,0.2-1.1-0.4-2.1-0.8s-2-0.5-2.1-0.8c0-0.2,0.2-0.4,0.7-0.6c1.3-0.3,2.6,0.2,3.4,1.3
		C569.2,69.2,569.2,69.6,569.1,69.7z"/>
	<path class="st7" d="M545.5,180.6c2.3,0.8,3.7,3.2,3.2,5.6l-6.8,2.7l-1.5-6.5L545.5,180.6z"/>
	<path class="st7" d="M488.7,180.6c0,0,13.5-1.4,22,1.6s19.1,5.2,23.7,4.2c2.5-0.6,4.7-2,6.4-4c0,0-13.5-1.6-19.8-3.7
		c-4.3-1.4-12.7-10.9-28.3-8.6L488.7,180.6z"/>
	<path class="st7" d="M543,185.5c-0.5-1.2-1.2-2.4-2.2-3.3l0.1,0.2c-1.4,0.1-2.8,0.3-4.2,0.6c-1.4,0.4-2.6,1.1-3.5,2.2
		c-0.3,0.3-0.5,0.8-0.5,1.3c0.1,0.6,0.5,1.1,1.1,1.5c1.2,1.1,2.7,2,4.3,2.5c1.6,0.5,3.4,0.1,4.5-1.2
		C543.3,188.2,543.4,186.8,543,185.5z"/>
	<path class="st6" d="M533.1,185c0.1-0.3,0.2-0.6,0.4-0.8c0.5-0.6,1.2-1,2-1.3c1.1-0.4,2.4-0.5,3.5-0.3c1.5,0.2,2.8,1.1,3.6,2.3
		c0.4,0.7,0.6,1.4,0.6,2.2c-0.1,0.7-0.3,1.4-0.8,2c-0.4,0.5-0.9,0.9-1.5,1.1c-0.5,0.2-1.1,0.2-1.7,0.2c-0.8-0.1-1.6-0.3-2.3-0.6
		c-0.3-0.1-0.5-0.2-0.6-0.3c-0.1,0-0.1-0.1-0.2-0.1l0.2,0.1l0.6,0.2c0.7,0.3,1.5,0.4,2.3,0.5c1.2,0.1,2.3-0.4,3-1.3
		c0.9-1.2,1-2.8,0.2-4c-0.8-1.2-2-2-3.5-2.3c-1.2-0.2-2.3-0.1-3.5,0.3c-0.8,0.2-1.4,0.6-2,1.2C533.4,184.5,533.3,184.8,533.1,185z"
		/>
	<path class="st5" d="M536,185.2c-0.3-0.3-0.5-0.5-0.8-0.7c-0.3-0.2-0.7-0.4-1-0.5C534.9,184.2,535.6,184.6,536,185.2L536,185.2z"/>
	<path class="st5" d="M538.2,185.3c0,0-0.3-0.3-0.7-0.7s-0.8-0.6-0.8-0.6c0.3,0.1,0.6,0.3,0.8,0.5
		C537.8,184.8,538,185.1,538.2,185.3z"/>
	<path class="st5" d="M539.1,190c0,0,0-0.2-0.2-0.6c-0.1-0.5-0.4-0.9-0.6-1.3c-0.3-0.4-0.6-0.8-1-1.1c-0.3-0.2-0.5-0.4-0.5-0.4
		c0.2,0.1,0.4,0.2,0.5,0.3c0.4,0.3,0.7,0.7,1,1.1c0.3,0.4,0.5,0.9,0.6,1.3C539,189.6,539.1,189.8,539.1,190z"/>
	<path class="st5" d="M541.3,188.3c0-0.2,0-0.4,0-0.6c0-0.5,0-0.9-0.1-1.4c-0.1-0.5-0.2-0.9-0.4-1.3c-0.1-0.3-0.2-0.5-0.2-0.5
		s0,0,0.1,0.1c0.1,0.1,0.1,0.2,0.2,0.4c0.2,0.4,0.3,0.9,0.4,1.4c0.1,0.5,0.1,0.9,0.1,1.4c0,0.1,0,0.3,0,0.4
		C541.3,188.2,541.3,188.2,541.3,188.3z"/>
	<path class="st6" d="M541.3,184.1c-2.2,0.7-4.1,2.1-5.5,3.9c0.1-0.3,0.3-0.6,0.6-0.9c1-1.3,2.4-2.3,4-2.8
		C540.7,184.2,541,184.1,541.3,184.1z"/>
	<path class="st6" d="M538,183c-0.8,0.6-1.4,1.3-1.8,2.1c-0.4,0.8-0.7,1.8-0.7,2.7c-0.1-0.3-0.1-0.6,0-0.8c0.1-0.7,0.3-1.3,0.6-1.9
		c0.3-0.6,0.8-1.1,1.3-1.6C537.5,183.3,537.7,183.1,538,183z"/>
	<path class="st6" d="M541.7,190c0,0-0.1-0.3-0.3-0.8c-0.3-0.6-0.7-1.2-1.2-1.6c-1.2-1-2.5-1.6-2.4-1.6c0.3,0.1,0.5,0.2,0.8,0.3
		c0.6,0.3,1.2,0.7,1.8,1.1c0.5,0.5,0.9,1.1,1.2,1.7C541.7,189.4,541.7,189.7,541.7,190z"/>
	<path class="st6" d="M513.2,182.9c-0.5,0-0.9-0.1-1.3-0.3c-0.8-0.2-2.1-0.5-3.6-0.8c-4-0.8-8-1.2-12-1.4c-2.2-0.2-4.4,0-6.6,0.5
		c-1.7,0.5-3.4,1.3-4.8,2.4c-1.3,1-2.4,2.3-3.4,3.6c0.2-0.4,0.4-0.8,0.7-1.2c0.7-1,1.5-1.9,2.5-2.7c1.4-1.2,3.1-2,4.9-2.5
		c2.2-0.5,4.4-0.7,6.7-0.6c4.1,0.2,8.1,0.7,12.1,1.6c1.5,0.3,2.7,0.7,3.6,0.9C512.4,182.5,512.8,182.7,513.2,182.9z"/>
	<path class="st6" d="M413.8,169.3c0.2-0.2,0.4-0.4,0.7-0.5c0.7-0.5,1.4-0.9,2.2-1.2c2.9-1.2,6.1-1.5,9.1-0.7c2.1,0.5,4,1.5,5.6,2.9
		c1.8,1.6,3.4,3.5,4.8,5.5c1.5,2.2,3.1,4.4,4.8,6.4c1.8,2.2,3.9,4.2,6,6.1c4.4,3.9,9.2,7,14,8.5c2.3,0.8,4.7,1.2,7.1,1.2
		c2.1,0.1,4.1-0.4,6-1.5c1.4-0.9,2.7-2.1,3.7-3.5c0.9-1.2,1.7-2.3,2.3-3.2l1.4-2.1c0.1-0.2,0.3-0.5,0.5-0.7
		c-0.1,0.3-0.3,0.5-0.4,0.8l-1.3,2.1c-0.6,0.9-1.3,2-2.2,3.3c-1,1.4-2.3,2.7-3.8,3.7c-1.9,1.1-4,1.7-6.1,1.6c-2.4,0-4.9-0.4-7.2-1.1
		c-4.9-1.6-9.8-4.7-14.2-8.6c-2.2-1.9-4.2-4-6.1-6.2c-1.7-2.1-3.3-4.2-4.8-6.5c-1.3-2-2.9-3.9-4.6-5.5c-1.6-1.4-3.4-2.4-5.5-2.9
		c-2.9-0.8-6.1-0.6-8.9,0.5C415.7,168.2,414.8,168.7,413.8,169.3z"/>
	<path class="st5" d="M438.7,160.4H438c-0.5,0-1.1,0.1-1.9,0.1c-4.2,0.5-8.2,2-11.7,4.5c-0.6,0.5-1.2,0.9-1.5,1.2l-0.5,0.4
		c0.6-0.6,1.3-1.2,2-1.7c3.4-2.5,7.5-4.1,11.7-4.5C437,160.4,437.9,160.4,438.7,160.4z"/>
	<path class="st5" d="M454.8,170.2l-0.7,0.1c-0.5,0.1-1.2,0.2-2,0.3c-2.2,0.4-4.3,1.2-6.3,2.1c-2,1-3.9,2.2-5.6,3.6
		c-0.6,0.5-1.2,1-1.5,1.3l-0.5,0.5c0.6-0.7,1.3-1.3,2-1.9c1.7-1.4,3.6-2.7,5.6-3.6c2-1,4.1-1.7,6.3-2.1
		C453,170.4,453.9,170.2,454.8,170.2z"/>
	<path class="st5" d="M454.3,192.9c-0.1-0.3-0.1-0.5-0.1-0.8c-0.1-0.7-0.1-1.4-0.1-2.1c0.2-2.3,0.8-4.6,2-6.7c1.2-2,2.6-3.9,4.1-5.6
		c1.2-1.4,2-2.1,2-2.1l-0.5,0.6l-1.4,1.6c-1.6,1.7-2.9,3.6-4.1,5.6c-1.2,2-1.9,4.3-2.1,6.6c-0.1,0.7-0.1,1.4,0,2.1
		c0,0.3,0.1,0.4,0.1,0.6L454.3,192.9z"/>
	<path class="st5" d="M471.9,182.9c-0.1-0.2-0.2-0.5-0.3-0.8c-0.3-1.3-0.3-2.6-0.1-3.9c0.1-0.3,0.1-0.5,0.2-0.8c0,0-0.1,0.3-0.2,0.8
		c-0.2,1.3-0.2,2.6,0.1,3.9C471.8,182.6,471.9,182.8,471.9,182.9z"/>
	<path class="st5" d="M475,195c-0.6-0.4-1.1-0.8-1.6-1.2c-2.5-2.1-4.2-5-5-8.1c-0.2-0.7-0.3-1.3-0.3-2c0,0,0,0.2,0.1,0.5
		s0.1,0.8,0.3,1.4c0.8,3.1,2.5,5.9,5,8.1c0.4,0.3,0.7,0.6,1.1,0.9C474.8,194.9,475,195,475,195z"/>
	<path class="st5" d="M488.5,181.2c0,0-0.5-0.2-1.3-0.7c-1-0.6-2-1.3-2.9-2c-0.9-0.7-1.8-1.5-2.6-2.4c-0.6-0.7-1-1.1-1-1.1l0.3,0.3
		l0.7,0.8c0.8,0.8,1.7,1.6,2.6,2.4c0.9,0.7,1.9,1.4,2.9,2l0.9,0.6L488.5,181.2z"/>
	<path class="st5" d="M498.1,179.9c0,0,0-0.1,0-0.4s0-0.7,0-1.1c0-0.9-0.1-2.2-0.3-3.5s-0.4-2.6-0.6-3.5l-0.2-1.1
		c-0.1-0.3-0.1-0.4-0.1-0.4s0,0.1,0.1,0.4s0.2,0.6,0.3,1c0.2,0.9,0.5,2.1,0.6,3.5c0.2,1.2,0.3,2.4,0.3,3.5c0,0.4,0,0.8,0,1.1
		S498.1,179.9,498.1,179.9z"/>
	<path class="st5" d="M510.5,173c0,0.1,0,0.2,0,0.3c0,0.3-0.1,0.6-0.1,0.9c-0.1,0.8-0.2,1.8-0.5,2.9s-0.5,2.1-0.7,2.9
		c-0.1,0.3-0.2,0.6-0.3,0.9s-0.1,0.3-0.1,0.3c0-0.1,0-0.2,0.1-0.3c0.1-0.3,0.2-0.6,0.2-0.9c0.2-0.7,0.5-1.7,0.7-2.9s0.4-2.1,0.5-2.9
		c0-0.3,0.1-0.6,0.1-0.9L510.5,173z"/>
	<path class="st5" d="M519,181.3c0.1-0.5,0.2-1.1,0.3-1.6c0.1-0.5,0.2-1.1,0.4-1.6c-0.1,0.5-0.2,1.1-0.3,1.6
		C519.3,180.2,519.2,180.8,519,181.3z"/>
	<path class="st5" d="M533,185.9c0,0,0-0.3,0.1-0.7s0.1-1,0.1-1.6c0-0.4,0-0.9,0-1.6v-0.5c0-0.1,0-0.1,0-0.2c0,0.2,0.1,0.5,0.1,0.7
		c0,0.4,0,1,0,1.6c0,0.5-0.1,1.1-0.1,1.6C533.1,185.5,533.1,185.7,533,185.9z"/>
	<path class="st7" d="M535.7,189.2c-1.1-4.4-5.5-7.1-10-7.9s-8.9,0.2-13.4,0.8s-9.2,0.7-13.2-1.4c-1.3,2.3-1.9,5-1.9,7.6h2.3
		c0.5,3.4,3.6,6,6.9,6.7s5.5,0.8,8.7-0.6c3.3-1.4,7.5-3.6,10.8-4.7s6.8-1.7,10-0.6"/>
	<path class="st6" d="M501.5,181.8c-0.1,0.3-0.2,0.6-0.4,0.9c-0.3,0.7-0.6,1.5-0.8,2.3c-0.2,0.8-0.4,1.6-0.5,2.4
		c0,0.3-0.1,0.7-0.1,1c0-0.3,0-0.7,0-1c0.1-0.8,0.2-1.6,0.4-2.4c0.2-0.8,0.5-1.6,0.9-2.3C501.1,182.4,501.3,182.1,501.5,181.8z"/>
	<path class="st6" d="M499.8,186.5c-0.4,0-0.8,0-1.2-0.1c-0.4,0-0.8-0.1-1.2-0.2c0.4-0.1,0.8-0.1,1.3,0
		C499,186.3,499.4,186.3,499.8,186.5z"/>
	<path class="st6" d="M500.3,183.8c0,0-0.5-0.3-1.1-0.5s-1.1-0.2-1.1-0.3C498.9,182.9,499.8,183.2,500.3,183.8z"/>
	<path class="st6" d="M505,182.4h0.7c0.5,0,1.1,0,2,0c2.5,0,4.9-0.3,7.3-0.8c3.6-0.8,7.3-0.9,11-0.3c2.2,0.3,4.2,1.2,6.1,2.4
		c2,1.4,3.4,3.4,4.2,5.6l0.1,0.2l-0.2-0.1c-0.9-0.5-2-0.7-3-0.8c-2.5-0.1-5.1,0.4-7.4,1.3c-2.2,0.8-4.4,1.7-6.6,2.7
		c-1,0.5-2,1-3,1.4c-0.9,0.4-1.9,0.8-2.9,1.1c-1.8,0.4-3.7,0.5-5.6,0.2c-1.5-0.2-3-0.8-4.3-1.6c-1-0.7-1.8-1.5-2.4-2.5
		c-0.4-0.6-0.7-1.3-0.9-2c-0.1-0.5-0.2-0.8-0.2-0.8c0.2,1,0.6,1.9,1.1,2.7c0.6,1,1.4,1.8,2.4,2.5c1.3,0.8,2.7,1.4,4.3,1.6
		c1.8,0.3,3.7,0.2,5.5-0.3c1-0.3,2-0.6,2.9-1.1c1-0.4,2-0.9,3-1.4c2.1-1,4.3-1.9,6.6-2.7c2.4-0.9,4.9-1.4,7.5-1.3
		c1.1,0.1,2.1,0.4,3.1,0.8l-0.1,0.1c-0.7-2.2-2.2-4.2-4.1-5.5c-1.8-1.2-3.8-2.1-6-2.4c-3.6-0.6-7.3-0.5-10.9,0.3
		c-2.4,0.5-4.9,0.7-7.3,0.7C505.9,182.5,505,182.4,505,182.4z"/>
	<path class="st5" d="M504.8,194.6c-0.1-0.1-0.1-0.3-0.2-0.5c-0.1-0.4-0.3-0.8-0.3-1.3c-0.6-2.9-0.4-5.9,0.6-8.6
		c0.1-0.4,0.3-0.8,0.5-1.2c0.1-0.2,0.1-0.3,0.2-0.4c0,0-0.3,0.6-0.6,1.7c-0.5,1.4-0.7,2.8-0.8,4.3c-0.1,1.4,0,2.9,0.2,4.3
		C504.6,193.9,504.8,194.6,504.8,194.6z"/>
	<path class="st5" d="M513.5,188.7c0.1,0.3,0.1,0.6,0.2,0.8c0.1,0.5,0.2,1.2,0.4,2c0.4,1.6,0.8,2.8,0.8,2.8
		c-0.1-0.2-0.3-0.5-0.3-0.8c-0.2-0.5-0.4-1.2-0.6-2c-0.2-0.7-0.3-1.3-0.4-2C513.4,189.3,513.4,189,513.5,188.7z"/>
	<path class="st5" d="M512.2,185.3c0.1,0.5,0.1,1.1,0.1,1.6c0.1,0.9,0.2,1.6,0.2,1.6C512.1,187.5,512,186.4,512.2,185.3L512.2,185.3
		z"/>
	<path class="st5" d="M514.4,181.8c0.1,0-0.2,0.7-0.4,1.5s-0.1,1.5-0.2,1.5c-0.1-0.5-0.1-1.1,0-1.6
		C513.9,182.7,514.1,182.2,514.4,181.8z"/>
	<path class="st5" d="M521.2,183.7c-0.6-0.7-0.8-1.6-0.6-2.5c0.1,0,0,0.6,0.2,1.3S521.3,183.7,521.2,183.7z"/>
	<path class="st5" d="M526.6,189.4c-0.2-0.2-0.4-0.5-0.6-0.8c-0.4-0.7-0.8-1.4-1.1-2.1c-0.3-0.7-0.6-1.5-0.8-2.2
		c-0.1-0.3-0.2-0.7-0.2-1c0.1,0.3,0.2,0.6,0.3,0.9c0.2,0.6,0.5,1.4,0.8,2.2s0.7,1.6,1,2.1C526.4,188.7,526.5,189,526.6,189.4z"/>
	<path class="st5" d="M528.1,182.1c0,0.1-0.1,0.2-0.3,0.4s-0.3,0.4-0.3,0.4s0-0.3,0.2-0.6S528.1,182,528.1,182.1z"/>
	<path class="st5" d="M536.1,189.5c-0.1-0.1-0.2-0.2-0.3-0.3c-1.3-1.1-2.9-1.8-4.7-2c-2-0.2-4,0-5.9,0.6c-2.3,0.8-4.6,1.7-6.8,2.8
		c-2.2,1.1-4.6,1.7-7,2c-2,0.2-4,0-6-0.5c-1.3-0.3-2.6-0.8-3.8-1.5c-0.4-0.2-0.7-0.4-0.9-0.6l-0.3-0.2l0.3,0.2
		c0.2,0.1,0.5,0.3,1,0.5c3,1.6,6.3,2.3,9.7,2c2.4-0.3,4.8-1,7-2c2.2-1.1,4.5-2,6.8-2.8c1.9-0.6,3.9-0.9,5.9-0.6
		c1.3,0.2,2.6,0.6,3.8,1.4C535.3,188.9,535.7,189.2,536.1,189.5z"/>
	<path class="st5" d="M519.4,184.8c0,0-0.3,0.1-0.7,0.3s-1.1,0.4-2,0.7c-2.2,0.8-4.5,1.1-6.8,1.1c-2.3-0.1-4.6-0.5-6.8-1.1
		c-1.7-0.5-2.7-0.9-2.7-0.9l0.8,0.2l2,0.6c2.2,0.7,4.5,1.1,6.8,1.1c2.3,0,4.6-0.4,6.8-1.1c0.8-0.3,1.5-0.5,2-0.7L519.4,184.8z"/>
	<path class="st5" d="M529.5,183.8l-0.3-0.2c-0.2-0.2-0.5-0.3-0.7-0.4c-0.9-0.5-1.9-0.8-2.9-1c-1.5-0.3-3-0.3-4.5-0.2
		c-1.7,0.2-3.5,0.5-5.5,0.9c-3.3,0.7-6.7,0.8-10,0.3c-2.6-0.4-4.1-0.8-4.1-0.8l1.1,0.2c0.7,0.1,1.7,0.3,3,0.5
		c3.3,0.5,6.7,0.4,10-0.3c1.9-0.4,3.8-0.7,5.5-0.9c1.5-0.2,3-0.1,4.5,0.2c1,0.2,2,0.5,2.9,1C529,183.3,529.3,183.5,529.5,183.8z"/>
	<path class="st6" d="M535.8,189c-0.8-1.1-1.7-2.1-2.8-3c-1.1-0.9-2.4-1.6-3.8-2.1c-1.7-0.5-3.5-0.6-5.3-0.3c-1.8,0.4-3.5,1-5,2
		c-1.4,0.8-2.7,1.7-3.9,2.2c-0.9,0.5-1.9,0.8-2.9,1c-0.3,0-0.5,0.1-0.8,0.1c-0.2,0-0.3,0-0.3,0c1.3-0.3,2.6-0.7,3.8-1.4
		c1.1-0.6,2.4-1.4,3.8-2.3c1.6-1,3.3-1.7,5.1-2.1c3.4-0.6,6.9,0.4,9.5,2.6c0.8,0.7,1.4,1.4,2,2.3C535.5,188.4,535.7,188.7,535.8,189
		z"/>
	<path class="st6" d="M521.9,183.9c-1.9,0.8-4,1.3-6.1,1.4c-2.1,0.2-4.2,0.1-6.2-0.5c0-0.1,2.8,0.2,6.2,0S521.9,183.8,521.9,183.9z"
		/>
	<path class="st5" d="M517,180.9l-1.1-0.5c-0.8-0.3-1.8-0.8-3.3-1.3c-4-1.5-8.3-2.4-12.6-2.6c-3-0.1-5.9,0.3-8.8,1.1
		c-3.3,1-6.3,2.7-8.7,5.1c-2.6,2.5-4.8,5.6-7.8,8.2c-1.5,1.3-3.3,2.3-5.3,2.8c-2,0.4-4.1,0.3-6.1-0.4c-2-0.7-3.8-1.7-5.4-3
		c-1.5-1.3-2.9-2.7-4.1-4.4c-2.4-3.1-4.3-6.4-6.5-9.3c-2-2.7-4.3-5.3-6.9-7.5c-2.3-1.9-4.8-3.5-7.5-4.7c-4-1.7-8.4-2.1-12.6-1.3
		c-1.1,0.3-2.3,0.6-3.3,1.1l-1.1,0.6l1.1-0.6c1.1-0.5,2.2-0.9,3.3-1.1c4.2-0.9,8.7-0.5,12.7,1.2c2.8,1.1,5.3,2.7,7.6,4.7
		c2.6,2.2,5,4.7,7,7.5c2.2,2.9,4.1,6.1,6.5,9.3c1.2,1.6,2.6,3,4.1,4.3c1.6,1.3,3.4,2.3,5.3,3c1.9,0.7,4,0.8,6,0.4
		c1.9-0.5,3.7-1.5,5.2-2.8c3-2.6,5.2-5.7,7.8-8.2c2.5-2.4,5.5-4.2,8.8-5.1c2.9-0.9,5.8-1.2,8.8-1.1c4.3,0.2,8.5,1.1,12.6,2.6
		C515.5,180.1,517,180.9,517,180.9z"/>
	<path class="st5" d="M467.9,183.8c-0.5,0-1.1,0-1.6-0.1c-1.4-0.2-2.8-0.8-4-1.6c-1.7-1.3-3.2-2.8-4.4-4.6c-1.4-2.2-3-4.3-4.6-6.3
		c-3.1-3.6-6.9-6.6-11.1-8.8c-1.3-0.7-2.6-1.3-3.9-1.8l-1.4-0.5c0,0,0.5,0.2,1.5,0.5c1.3,0.5,2.7,1.1,3.9,1.8
		c4.2,2.2,8,5.2,11.1,8.8c1.7,2,3.2,4.1,4.6,6.3c1.2,1.8,2.7,3.3,4.4,4.6c1.2,0.8,2.5,1.4,3.9,1.7c0.4,0.1,0.8,0.1,1.2,0.1
		L467.9,183.8z"/>
	<path class="st5" d="M514,175.3c-0.1-0.1-0.2-0.1-0.3-0.2c-0.2-0.1-0.5-0.3-0.9-0.5c-1.1-0.6-2.2-1.1-3.3-1.6
		c-7.6-3.1-16.1-2.8-23.5,0.7c-1.1,0.5-2.2,1.1-3.2,1.8c-0.4,0.2-0.6,0.4-0.8,0.6l-0.3,0.2c0,0,0.4-0.3,1.1-0.8
		c1-0.7,2.1-1.3,3.2-1.8c7.4-3.6,16-3.9,23.6-0.7c1.1,0.5,2.2,1,3.3,1.6C513.6,175,514,175.3,514,175.3z"/>
	<path class="st5" d="M493.6,179.8c0,0,0-0.1-0.1-0.4s-0.2-0.6-0.3-1.1c-0.4-1.2-0.9-2.3-1.4-3.4c-0.6-1.1-1.2-2.2-1.9-3.2
		c-0.3-0.4-0.5-0.7-0.6-0.9s-0.2-0.3-0.2-0.3c0.3,0.4,0.7,0.8,1,1.2c1.4,2,2.6,4.3,3.3,6.6C493.4,178.8,493.5,179.3,493.6,179.8z"/>
	<path class="st5" d="M504.2,170.5c0,0,0.1,0.6,0.1,1.5c0,1.2-0.1,2.3-0.2,3.5c-0.2,1.2-0.4,2.3-0.8,3.4c-0.3,0.9-0.5,1.4-0.5,1.4
		s0-0.1,0.1-0.4s0.2-0.7,0.3-1c0.3-1.1,0.6-2.3,0.7-3.4c0.2-1.2,0.3-2.3,0.3-3.5c0-0.4,0-0.7,0-1.1S504.2,170.5,504.2,170.5z"/>
	<path class="st5" d="M481.2,187.5c-0.4-0.2-0.8-0.5-1.2-0.7c-0.9-0.6-1.8-1.4-2.5-2.2c-0.8-0.8-1.5-1.6-2.2-2.5
		c-0.3-0.4-0.5-0.8-0.7-1.2c0,0,0.1,0.1,0.2,0.3s0.3,0.5,0.6,0.8c0.6,0.9,1.4,1.7,2.1,2.5c0.8,0.8,1.6,1.5,2.5,2.2l0.8,0.6
		L481.2,187.5z"/>
	<path class="st5" d="M465.8,184.3c-0.1-0.3-0.2-0.7-0.2-1c-0.1-0.8-0.2-1.7-0.1-2.6c0.1-0.9,0.2-1.7,0.4-2.5c0.1-0.3,0.2-0.7,0.4-1
		c0,0.1,0,0.2-0.1,0.3c-0.1,0.2-0.1,0.4-0.2,0.7c-0.2,0.8-0.4,1.7-0.4,2.5c0,0.9,0,1.7,0.1,2.6c0,0.3,0.1,0.6,0.1,0.8
		C465.8,184.2,465.8,184.3,465.8,184.3z"/>
	<path class="st5" d="M465.7,197.3c-0.3-0.5-0.5-1.1-0.7-1.6c-0.5-1.3-0.9-2.7-1.2-4.1c-0.3-1.4-0.4-2.8-0.5-4.3
		c0-0.6,0-1.2,0.1-1.8v0.5c0,0.3,0,0.8,0,1.3c0.1,1.4,0.2,2.9,0.5,4.3c0.3,1.4,0.7,2.8,1.2,4.1c0.2,0.5,0.4,0.9,0.5,1.2L465.7,197.3
		z"/>
	<path class="st5" d="M477.5,176.5c0,0.3,0.1,0.5,0.2,0.8c0.2,0.4,0.4,0.7,0.4,0.7c-0.2-0.2-0.4-0.4-0.5-0.7
		C477.5,177,477.4,176.7,477.5,176.5z"/>
	<path class="st5" d="M458,172.7l-0.6,0.4c-0.4,0.2-1,0.6-1.8,1c-3.8,2.3-7.2,5.3-9.9,8.9c-0.5,0.7-0.9,1.3-1.2,1.6
		s-0.4,0.6-0.4,0.6c0.5-0.8,1-1.6,1.5-2.3c2.7-3.6,6-6.6,9.9-8.9C456.3,173.6,457.1,173.1,458,172.7z"/>
	<path class="st5" d="M445.9,162.7l-0.6,0.1c-0.4,0.1-1,0.2-1.7,0.4c-1.9,0.5-3.7,1.2-5.4,2c-1.7,0.8-3.4,1.8-5,2.8
		c-0.6,0.4-1.1,0.8-1.4,1l-0.5,0.4c0,0,0.7-0.6,1.9-1.4c1.6-1.1,3.3-2.1,5-2.9c1.8-0.8,3.6-1.5,5.5-2
		C445,162.8,445.9,162.7,445.9,162.7z"/>
	<path class="st5" d="M527.5,180.3c0,0.2,0,0.4-0.1,0.6c0,0.2-0.1,0.4-0.2,0.6c0-0.2,0-0.4,0.1-0.6
		C527.4,180.7,527.4,180.5,527.5,180.3z"/>
	<path class="st11" d="M572.9,179.9c0,0,4.5,0.9,6.4,1.4c0.6,0.1,1.3,0,1.9,0.1c2.8,0.5,5.6,0.4,8.3-0.1c1.9-0.7,2,1.7-0.1,2.8
		c-1,0.6-2.2,1-3.3,1.2l5,4c0.3,0.2,0.4,0.5,0.5,0.8l1.3,8.8c0.2,0.7-0.3,1.5-1,1.7c-0.4,0.2-0.8,0-1-0.3c0,0,0,0,0,0l0.1,1.2
		c0.1,0.8-0.4,1.6-1.3,1.8c-0.8,0.1-1.6-0.4-1.8-1.3c0,0,0-0.1,0-0.1l-1.8,1c0,0-1.2,1.2-2.4-0.5c-1-1.4-4.1-6.9-4.1-6.9
		s-13.2-5.6-13-7.8L572.9,179.9z"/>
	<path class="st13" d="M588.1,201.9c-0.2-0.7-0.3-1.4-0.4-2.1c-0.2-1.3-0.6-3.1-0.8-5.1c-0.2-1-0.4-1.9-0.6-2.7
		c-0.1-0.3-0.4-0.6-0.7-0.8l-0.9-0.6c-0.6-0.4-1.2-0.8-1.8-1.3c0.7,0.2,1.4,0.5,2,0.9l1,0.5c0.4,0.2,0.8,0.6,0.9,1
		c0.3,0.9,0.5,1.9,0.7,2.8c0.3,2,0.6,3.8,0.7,5.2C588.3,200.5,588.2,201.2,588.1,201.9z"/>
	<path class="st13" d="M591,200.2c-0.2,0-0.5-3.2-1.3-7c-0.1-0.9-0.4-1.7-0.8-2.5c-0.5-0.5-1-1.1-1.6-1.5c-0.4-0.3-0.8-0.6-1.2-0.9
		c-0.3-0.2-0.5-0.2-0.5-0.3s0.2-0.1,0.6,0.1c0.5,0.2,0.9,0.4,1.4,0.8c0.6,0.4,1.2,0.9,1.8,1.5c0.5,0.8,0.9,1.7,1,2.7
		c0.4,1.6,0.6,3.3,0.8,5C591,198.8,591.1,199.5,591,200.2z"/>
	<path class="st13" d="M580.2,191.9c0.6,0.2,1.2,0.5,1.7,0.8l0.8,0.5c0.4,0.2,0.7,0.4,1,0.7c0.3,0.3,0.5,0.7,0.6,1.2
		c0.1,0.4,0.3,0.8,0.4,1.3c0.7,2,1.3,4.1,1.7,6.3c-0.9-2-1.6-4-2.2-6.1l-0.4-1.3c-0.1-0.4-0.2-0.7-0.5-1c-0.2-0.3-0.5-0.5-0.8-0.6
		l-0.8-0.5C581.3,192.7,580.7,192.3,580.2,191.9z"/>
	<path class="st13" d="M580.6,182.4c0.1-0.2,1.9,0.5,4,1.7s3.6,2.5,3.5,2.6s-1.7-1-3.8-2.1l-2.6-1.5
		C581.3,182.8,580.9,182.6,580.6,182.4z"/>
</g>
</svg>
